<?xml version="1.0"?>
<svg xmlns:rdf="http://www.w3.org/1999/02/22-rdf-syntax-ns#" xmlns="http://www.w3.org/2000/svg" xmlns:cc="http://creativecommons.org/ns#" xmlns:dc="http://purl.org/dc/elements/1.1/" xmlns:svg="http://www.w3.org/2000/svg" id="svg684" viewBox="0 0 296.57 213.84" version="1.0" y="0" x="0">
  <path id="path731" stroke-linejoin="round" d="m79.288 80.786c9.536-0.175 4.63 7.619 6.082 13.633 0.056 4.754 6.995 3.132 7.754 0.037 0.561-4.337-1.789-12.947 3.984-12.755 6.342-0.827 4.682 3.321 4.362 10.98 1.08 5.276 7.91 5.669 9.04 1.942 0-4.117-0.68-12.462 5.93-11.951 4.95-0.309 4.7 4.179 4.2 11.627-0.85 4.239 9.51 2.211 9.19 0.333 0-7.1-2.17-12.955 3.66-12.44 8.44-0.407 6.04 1.993 5.22 12.208 0.24 4.206 9.03 2.362 9.31-0.111 0.17-8.432-2.68-11.259 4.75-11.238 7.66-0.755 5.05 1.388 4.4 11.192-0.66 3.434 10.45 3.878 9.69 0.37-1.39-6.441-1.4-11.611 2.15-11.183 8.39-1.63 8.64 2.57 7.27 11.081 1.62 4.065 10.47 2.729 11.04-0.277-1.33-6.74-4.62-12.164 1.33-12.533 9.69-0.184 6.35 4.161 6.84 12.81 1.19 2.482 9.47 4.741 9.27 0.075 0.81-7.817-1.48-12.816 4.74-12.94 6.26-0.36 4.1 4.312 5.87 14.362 0.64 2.524 8 3.951 11.42 0.333 0.65-4.621-3.05-15.768 0.54-15.175m-215.75 95.894c14.876-4.59 17.726-36.87 16.912-86.543-2.783-9.015-5.653 1.917-5.824-19.373-0.222-11.461-0.345-15.327 5.573-15.481 5.388-0.091 4.118 1.666 4.549 12.085-0.53 2.883 7.622 3.361 7.635 0.552-0.055-6.843-0.804-13.173 3.945-13.133 4.497-0.041 4.715 1.667 4.153 12.924-0.159 2.894 7.327 4.032 7.395 0.647 0.064-11.429-1.019-13.217 3.582-13.457 5.171-0.101 2.663 5.627 4.114 13.343 0.68 3.97 6.953 3.162 7.454 0 0.362-3.56-2.911-13.832 3.163-13.343 9.145-0.392 4.518 8.66 5.014 27.067-0.523 7.407-3.898 4.816-6.942 9.474-3.307 27.028-4.576 84.748 6.785 87.888 14.131 4.01 21.784-7.38 38.224 2.05-1.83-29 5.4-60.3 28.37-61.09 19.78 0.23 28.25 26.03 29.17 59.58 8.58 5.33 14.8 4.41 24.12 0.29 10.22-4.33 17.22 6.09 31.35 2.08 14.27-9.93 8.47-89.006 5.49-92.416-3.99-5.628-6.61 1.704-8.24-9.15 0.5-18.408-3.99-26.812 4.69-26.42 5.16-0.031 4.42 9.46 4.78 13.019 0.51 3.162 7.79 4.104 8.48 0.134 0.07-7.716-1.39-13.254 3.79-13.153 6.54-0.407 5.4 0.923 5.46 12.352 0.07 3.385 8.01 4.133 7.86 1.238-0.57-11.256-1.24-14.337 4.55-14.296 4.75-0.04 4.97 7.473 4.92 14.316 0.01 2.809 7.89 3.035 7.36 0.151 0.43-10.419-1.4-15.411 3.98-15.32 7.22-0.17 5.7 16.322 5.2 29.179-0.63 7.689-4.97 4.623-6.05 9.365 3.36 48.151-0.69 87.751 13.02 94.181m-177.77-12.25l55.79 0.65" stroke="#4c4c4c" stroke-linecap="round" stroke-dasharray="1.928745, 3.85749" stroke-width="1.9287" fill="none"/>
  <path id="path734" d="m116.9 173.1c0.01-18.97 5.52-36.46 14.42-45.84 8.9-9.37 19.83-9.19 28.64 0.49s14.14 27.36 13.96 46.33l-28.51-0.9-28.51-0.08z" stroke-width="1pt" fill="#828282" fill-rule="evenodd"/>
  <path id="path732" stroke-linejoin="round" d="m41.671 116.98c0-5.64 1.488-10.86 3.904-13.68 2.415-2.81 5.389-2.8 7.798 0.04s3.885 8.07 3.872 13.72l-7.787-0.08h-7.787z" fill-rule="evenodd" stroke="#4c4c4c" stroke-linecap="round" stroke-dasharray="1.60728403, 3.21456806" stroke-width="1.6073" fill="#828282"/>
  <path id="path733" stroke-linejoin="round" d="m253.04 116.98c0-5.64 1.48-10.86 3.9-13.68 2.42-2.81 5.39-2.8 7.8 0.04s3.88 8.07 3.87 13.72l-7.79-0.08h-7.78z" fill-rule="evenodd" stroke="#4c4c4c" stroke-linecap="round" stroke-dasharray="1.60728403, 3.21456806" stroke-width="1.6073" fill="#828282"/>
  <path id="path752" stroke-linejoin="round" d="m95.298 0.80364l26.572 46.054h-54.027l27.455-46.054v-0.00036z" stroke="#4c4c4c" stroke-linecap="round" stroke-dasharray="1.60728545, 3.2145709" stroke-width="1.6073" fill="none"/>
  <path id="path753" stroke-linejoin="round" d="m214.25 0.80364l26.57 46.054h-54.03l27.46-46.054v-0.00036z" stroke="#4c4c4c" stroke-linecap="round" stroke-dasharray="1.60728545, 3.2145709" stroke-width="1.6073" fill="none"/>
  <path id="path754" stroke-linejoin="round" d="m75.149 46.836l-0.115 8.585" stroke="#4c4c4c" stroke-linecap="round" stroke-dasharray="1.6072875, 3.214575" stroke-width="1.6073" fill="none"/>
  <path id="path755" stroke-linejoin="round" d="m115.53 46.836l1.22 36.043" stroke="#4c4c4c" stroke-linecap="round" stroke-dasharray="1.6072875, 3.214575" stroke-width="1.6073" fill="none"/>
  <path id="path756" stroke-linejoin="round" d="m232.7 46.855l0.13 7.004" stroke="#4c4c4c" stroke-linecap="round" stroke-dasharray="1.6072875, 3.214575" stroke-width="1.6073" fill="none"/>
  <path id="path757" stroke-linejoin="round" d="m193.99 46.99l-0.12 35.699" stroke="#4c4c4c" stroke-linecap="round" stroke-dasharray="1.6072875, 3.214575" stroke-width="1.6073" fill="none"/>
  <path id="path774" stroke-linejoin="round" d="m115.96 59.898l4.64-0.007-0.09-3.668 4.34-0.007-0.09 3.881 5.53-0.007-0.39-3.895 4.94-0.007 0.5 3.881 4.93-0.007-0.39-3.896 4.65-0.007 0.2 3.653 4.64-0.007-0.09-3.668 4.34-0.007 0.02 3.868 4.7-0.008 0.04-3.652 4.27 0.06 0.02 3.713 4.23-0.122-0.18-3.886 4 0.153-0.22 3.798 4.9-0.19-0.51-3.576 4.69 0.029-0.04 3.592 4.71-0.073-0.19-3.67 4.34 0.145 0.18 3.763 4.97-0.325" stroke="#4c4c4c" stroke-linecap="round" stroke-dasharray="1.6072875, 3.214575" stroke-width="1.6073" fill="none"/>
  <path id="path775" stroke-linejoin="round" d="m207.75 68.479c0-3.804 1-7.318 2.63-9.214 1.62-1.897 3.62-1.888 5.25 0.025 1.62 1.912 2.61 5.435 2.61 9.238l-5.25-0.049h-5.24z" fill-rule="evenodd" stroke="#4c4c4c" stroke-linecap="round" stroke-dasharray="1.60728754, 3.21457507" stroke-width="1.6073" fill="#828282"/>
  <path id="path776" stroke-linejoin="round" d="m89.99 68.479c0-3.804 1.003-7.318 2.629-9.214 1.627-1.897 3.63-1.888 5.253 0.025 1.622 1.912 2.618 5.435 2.608 9.238l-5.245-0.049h-5.245z" fill-rule="evenodd" stroke="#4c4c4c" stroke-linecap="round" stroke-dasharray="1.60728754, 3.21457507" stroke-width="1.6073" fill="#828282"/>
  <path id="path573" stroke-linejoin="round" d="m32.899 174.92c1.553 3 2.144 9.65-6.572 14.14-8.715 4.5-23.454 5.13-25.006 2.13-1.5664-2.99 0.1582-9.06 8.873-13.56 8.712-4.49 21.13-5.72 22.696-2.73 0.003 0.01 0.006 0.01 0.009 0.02v0z" fill-rule="evenodd" stroke="#4c4c4c" stroke-linecap="round" stroke-dasharray="1.60728819, 3.21457142" stroke-width="1.6073" fill="#fff"/>
  <path id="path584" stroke-linejoin="round" d="m15.722 176.4c0.379-0.19 1.181-0.15 1.593 1.32 0.412 1.46 0.279 3.82-0.1 4.01-0.378 0.19-1.077-0.2-1.49-1.67s-0.383-3.46-0.005-3.65c0.001 0 0.001 0 0.002-0.01v0zm8.984 2.31c0.316 0.29 0.582 1.04-0.632 1.97-1.214 0.92-3.451 1.66-3.767 1.38-0.318-0.28-0.215-1.07 0.999-2 1.214-0.92 3.08-1.63 3.399-1.35h0.001v0zm0.496 7.76c-0.026 0.42-0.456 1.1-1.933 0.72-1.477-0.39-3.444-1.69-3.418-2.11 0.024-0.42 0.712-0.83 2.188-0.45 1.477 0.38 3.187 1.41 3.163 1.83v0.01zm-10.762 4.07c-0.412-0.02-1.08-0.42-0.741-1.86 0.338-1.45 1.556-3.39 1.967-3.37 0.413 0.01 0.826 0.67 0.488 2.11-0.338 1.45-1.299 3.13-1.711 3.12h-0.003v0zm-4.9086-6.25c-0.1737-0.38-0.12-1.15 1.3186-1.51 1.439-0.36 3.721-0.16 3.895 0.21 0.176 0.38-0.221 1.04-1.66 1.4s-3.3765 0.27-3.5525-0.1h-0.0011v0z" stroke="#4f4c4d" stroke-linecap="round" stroke-dasharray="0.642915, 1.28583" stroke-width=".64292" fill="none"/>
  <path id="path586" d="m250.3 183.76c4.93 3.62 11.48 14.34 8.61 15.53l-0.17 0.28c-4.19 1.22-12.56-6.65-16.17-3.93-5.11 4.75-7.35 14.92-12.75 17.4-3.8 0.24 1.91-18.27-4.27-20.28-1.83-3.28-17.01 0.45-17.28-3.18 3.94-6.88 13.43-6.85 16.25-10.44-0.5-7.1-3.1-17.23-0.6-17.3 2.67-1.29 7.22 2.6 14.21 8.97 5.87 0.32 6.7-1.96 11.13-1.79 4.64 1.52-0.9 8.63-0.5 12.06" fill-rule="evenodd" stroke="#4c4c4d" stroke-dasharray="1.6072864, 3.2145728" stroke-width="1.6073" fill="#d9d9d9"/>
  <path id="path881" stroke-linejoin="round" d="m110.54 187.73c0.62 3.25-0.41 4.61-1.07 4.8v0c-1.33 0.36-3.49-1.43-4.24-4.17-0.37-1.37 0.04-2.81 0.24-3.77-0.66-0.72-1.77-1.83-2.14-3.2-0.38-1.36 0.05-2.74 0.26-3.7-0.66-0.72-1.78-1.84-2.15-3.21-0.75-2.73 0.22-5.3 1.54-5.66 0.66-0.19 2.41 0.58 3.4 3.7 1.94-2.77 7.29-6.67 10.57-7.57 6.55-1.81 9.08 3.19 10.88 9.75 1.81 6.55 2.16 12.2-4.39 14.01l-0.21 0.06v0c-3.3 0.9-9.84 0.44-12.69-1.04v0z" fill-rule="evenodd" stroke-linecap="round" stroke-dasharray="22.1322, 44.2644" stroke-width="22.132" fill="#fff"/>
  <path id="path826" stroke-linejoin="round" d="m121.02 164.91c-1.89 3.08-8.08 6.19-14.2 7.86m15.92-6.96c-1.77 3.09-10.65 6.84-15.93 8.28m11.49-8.75c-2.23 3.06-5.38 4.1-9.64 5.2m15.32-3.63c-4.9 4.33-10.7 6.83-16.81 8.5m17.86-6.68c-6.48 3.7-8.76 5.64-17.49 8.03m18.51-6.32c-7.02 3.74-9.45 5.14-18.18 7.53m18.76-5.38c-8.42 3.63-9.89 3.98-18.49 6.38m19.11-4.11l-18.72 5.27m18.37 6.52c-3.2-1.69-10.11-1.22-16.22 0.46m17.24-2.11c-3.09-1.76-12.65-0.48-17.93 0.97m14.35 1.7c-3.48-1.51-6.72-0.8-10.95 0.42m15.04-4.67c-6.43-1.24-12.68-0.44-18.8 1.23m18.78-3.33c-7.46 0.11-10.42-0.4-19.15 1.98m19.15-3.97c-7.94 0.35-10.75 0.38-19.48 2.76m18.9-4.91c-9.1 1.16-10.55 1.61-19.17 3.91" stroke="#d4d4d4" stroke-linecap="round" stroke-dasharray="0.64291464, 0.64291464" stroke-width=".64291" fill="none"/>
  <path id="path737" stroke-linejoin="round" d="m110.54 187.73c0.62 3.25-0.41 4.61-1.07 4.8v0c-1.33 0.36-3.49-1.43-4.24-4.17-0.37-1.37 0.04-2.81 0.24-3.77-0.66-0.72-1.77-1.83-2.14-3.2-0.38-1.36 0.05-2.74 0.26-3.7-0.66-0.72-1.78-1.84-2.15-3.21-0.75-2.73 0.22-5.3 1.54-5.66 0.66-0.19 2.41 0.58 3.4 3.7 1.94-2.77 7.29-6.67 10.57-7.57 6.55-1.81 9.08 3.19 10.88 9.75 1.81 6.55 2.16 12.2-4.39 14.01l-0.21 0.06v0c-3.3 0.9-9.84 0.44-12.69-1.04v0z" stroke="#4c4d4c" stroke-linecap="round" stroke-dasharray="1.60729022, 3.21458044" stroke-width="1.6073" fill="none"/>
  <g id="g876" transform="matrix(.51433 0 0 .51433 8.9955 135.58)">
    <path id="path865" d="m151.41 121.32c14.07-20.38 18.63-27.6 42.59-27.235 22.52 10.505 19.52 16.885 36.99 22.535 22.88 6.94 11.72 19.13-5.33 16.1" fill-rule="evenodd" transform="translate(1.2449 -1.4168)" stroke-width="1pt" fill="#fff"/>
    <path id="path841" stroke-linejoin="round" d="m126.15 194.62c19.92-20.75 38.18-12.04 49.38-1.66 15.77 13.69 39.01 19.5 46.48 9.96" transform="translate(37.226 -89.581)" stroke="#4c4c4d" stroke-linecap="round" stroke-dasharray="3.125, 6.25" stroke-width="3.125" fill="none"/>
  </g>
  <metadata>
    <rdf:RDF>
      <cc:Work>
        <dc:format>image/svg+xml</dc:format>
        <dc:type rdf:resource="http://purl.org/dc/dcmitype/StillImage"/>
        <cc:license rdf:resource="http://creativecommons.org/licenses/publicdomain/"/>
        <dc:publisher>
          <cc:Agent rdf:about="http://openclipart.org/">
            <dc:title>Openclipart</dc:title>
          </cc:Agent>
        </dc:publisher>
        <dc:title>sand castle</dc:title>
        <dc:date>2008-02-08T05:01:53</dc:date>
        <dc:description>beach, beach, building, building, castle, castle, clip art, clipart, image, media, png, public domain, sand, sand, seashore, seashore, season, season, shell, shell, summer, summer, svg, vacation, vacation, </dc:description>
        <dc:source>http://openclipart.org/detail/13153/sand-castle-by-anonymous</dc:source>
        <dc:creator>
          <cc:Agent>
            <dc:title>Anonymous</dc:title>
          </cc:Agent>
        </dc:creator>
        <dc:subject>
          <rdf:Bag>
            <rdf:li>beach</rdf:li>
            <rdf:li>building</rdf:li>
            <rdf:li>castle</rdf:li>
            <rdf:li>clip art</rdf:li>
            <rdf:li>clipart</rdf:li>
            <rdf:li>image</rdf:li>
            <rdf:li>media</rdf:li>
            <rdf:li>png</rdf:li>
            <rdf:li>public domain</rdf:li>
            <rdf:li>sand</rdf:li>
            <rdf:li>seashore</rdf:li>
            <rdf:li>season</rdf:li>
            <rdf:li>shell</rdf:li>
            <rdf:li>summer</rdf:li>
            <rdf:li>svg</rdf:li>
            <rdf:li>vacation</rdf:li>
          </rdf:Bag>
        </dc:subject>
      </cc:Work>
      <cc:License rdf:about="http://creativecommons.org/licenses/publicdomain/">
        <cc:permits rdf:resource="http://creativecommons.org/ns#Reproduction"/>
        <cc:permits rdf:resource="http://creativecommons.org/ns#Distribution"/>
        <cc:permits rdf:resource="http://creativecommons.org/ns#DerivativeWorks"/>
      </cc:License>
    </rdf:RDF>
  </metadata>
</svg>
