<?xml version="1.0" encoding="UTF-8" standalone="no"?>
<!-- Created with Inkscape (http://www.inkscape.org/) -->
<svg xmlns:dc="http://purl.org/dc/elements/1.1/" xmlns:cc="http://creativecommons.org/ns#" xmlns:rdf="http://www.w3.org/1999/02/22-rdf-syntax-ns#" xmlns:svg="http://www.w3.org/2000/svg" xmlns="http://www.w3.org/2000/svg" xmlns:sodipodi="http://sodipodi.sourceforge.net/DTD/sodipodi-0.dtd" xmlns:inkscape="http://www.inkscape.org/namespaces/inkscape" id="svg2" sodipodi:docname="qubodup_Ugly_non-perspective_cartoony_fort_fortress_stronghold_or_castle.svg" inkscape:export-filename="/home/qubodup/fort.png" viewBox="0 0 395 378" sodipodi:version="0.32" inkscape:export-xdpi="90" version="1.0" inkscape:output_extension="org.inkscape.output.svg.inkscape" inkscape:export-ydpi="90" inkscape:version="0.48.5 r10040">
  <defs id="defs5"/>
  <sodipodi:namedview id="base" bordercolor="#666666" height="340px" inkscape:pageshadow="2" guidetolerance="10.0" pagecolor="#ffffff" gridtolerance="10.0" width="380px" inkscape:zoom="1" objecttolerance="10.0" borderopacity="1.0" inkscape:current-layer="layer2" inkscape:cx="130.17526" inkscape:cy="148.80243" inkscape:window-y="25" inkscape:window-x="0" inkscape:window-height="1039" inkscape:guide-bbox="true" inkscape:pageopacity="0.0" inkscape:window-width="1481" showguides="true" showgrid="false" fit-margin-top="0" fit-margin-left="0" fit-margin-right="0" fit-margin-bottom="0" inkscape:window-maximized="0"/>
  <g id="layer1" inkscape:label="ground" inkscape:groupmode="layer" style="display:none"/>
  <g id="layer2" inkscape:label="base" inkscape:groupmode="layer" style="display:inline">
    <path style="fill:#628c30;fill-opacity:1;fill-rule:nonzero;stroke:none" d="m 34,353 -1,23 27,-23 31,25 27,-35 31,21 32,-31 19,26 40,-32 24,22 14,-20 33,20 5,-21 33,20 1,-19 32,2 -19,-22 32,-11 -31,-26 22,-17 L 369,243.59619 380,229 366,210 375.25,189 356,173 l 19,-20 -23,-3 12,-14 -22,-13 11,-9 -35,-5 -269,9 -27,-13 9,24 -15,14 14,8 -21,25 26,10 -11,19 18,18 -25,22 15,18 -23,11 26,22 -25,19 22,14 -23,26 z" id="path3928" inkscape:connector-curvature="0" sodipodi:nodetypes="cccccccccccccccccccccccccccccccccccccccccccccccc"/>
    <g id="g4438">
      <path inkscape:connector-curvature="0" id="path3930" d="M 169.34375,235.34375 185.875,339.65625 200,359 l 37.53125,-30.03125 -3.125,-13.375 8.125,-57.96875 -73.1875,-22.28125 z" style="fill:#747474;fill-opacity:1;fill-rule:nonzero;stroke:none"/>
      <path inkscape:connector-curvature="0" id="rect3940" d="m 201.75,245.21875 -29.03125,11.40625 0.25,1.59375 31.21875,-12.28125 -2.4375,-0.71875 z m 7.09375,2.15625 -35.40625,13.90625 0.28125,1.59375 37.5625,-14.75 -2.4375,-0.75 z m 7.34375,2.21875 -41.96875,16.5 0.25,1.59375 43.21875,-16.96875 -0.3125,-0.75 -1.1875,-0.375 z m 2.59375,3.9375 -43.8125,17.21875 0.25,1.59375 44.125,-17.34375 -0.5625,-1.46875 z m 10.34375,0.40625 -1.46875,0.59375 11.5625,26.6875 0.4375,-3 L 229.125,253.9375 z m 3.8125,0.75 7.5625,17.46875 0.40625,-2.96875 -6,-13.875 -1.96875,-0.625 z m -8.09375,0.9375 -1.46875,0.59375 14.625,33.75 0.40625,-3 -13.5625,-31.34375 z m 13.84375,0.84375 3.03125,6.96875 0.40625,-3 -1.4375,-3.375 -2,-0.59375 z m -17.96875,0.78125 -1.46875,0.59375 0.0937,0.1875 -2.78125,1.09375 -0.0937,-0.1875 -1.5,0.5625 0.0937,0.21875 -2.96875,1.15625 -0.0937,-0.1875 -1.46875,0.5625 0.0937,0.21875 -2.78125,1.09375 -0.0937,-0.21875 -1.5,0.59375 0.0937,0.21875 -2.78125,1.09375 -0.0937,-0.21875 -1.5,0.59375 0.0937,0.21875 -2.78125,1.09375 -0.0937,-0.21875 -1.5,0.5625 0.0937,0.21875 -2.9375,1.15625 -0.0937,-0.1875 -1.5,0.5625 0.0937,0.21875 -2.78125,1.09375 -0.0937,-0.21875 -1.5,0.59375 0.0937,0.21875 -13.40625,5.28125 0.25,1.59375 1.40625,-0.53125 1.1875,2.75 -2.09375,0.8125 0.25,1.625 2.46875,-0.96875 1.28125,2.90625 -2.8125,1.125 -0.71875,-1.625 1,6.25 0.0625,0.15625 -0.0312,0 0.25,1.625 0.40625,-0.15625 1.21875,2.75 -1.15625,0.4375 0.28125,1.625 1.5,-0.59375 1.1875,2.75 -2.21875,0.875 0.25,1.625 2.625,-1.03125 1.25,2.90625 -2.65625,1.03125 -1.1875,-2.78125 1,6.375 0.53125,1.21875 -0.3125,0.125 0.25,1.625 0.71875,-0.28125 0.9375,2.15625 -1.28125,0.5 0.25,1.625 1.65625,-0.65625 1.1875,2.75 -2.34375,0.9375 0.25,1.59375 2.71875,-1.0625 1.28125,2.90625 -2.78125,1.09375 -1.1875,-2.6875 1,6.3125 0.53125,1.1875 -0.3125,0.125 0.25,1.625 0.6875,-0.28125 1.125,2.59375 -1.34375,0.53125 0.25,1.625 1.71875,-0.6875 1.1875,2.75 -2.4375,0.96875 0.25,1.59375 2.84375,-1.09375 1.25,2.9375 -2.9375,1.15625 -1.0625,-2.4375 0.34375,2.15625 1.46875,2.03125 -0.125,-0.3125 2.96875,-1.15625 1.1875,2.75 -2.40625,0.9375 1,1.34375 2.03125,-0.8125 1.1875,2.75 -1.40625,0.5625 0.96875,1.34375 1.09375,-0.4375 1.1875,2.75 -0.4375,0.1875 0.96875,1.3125 0.0937,-0.0312 0.1875,0.4375 L 200,359 l 0.0625,-0.0312 -1,-2.28125 2.78125,-1.09375 0.625,1.4375 1.3125,-1.0625 -0.4375,-0.96875 2.625,-1.03125 0.0937,0.1875 4.96875,-4 -1.21875,-2.84375 2.96875,-1.15625 0.84375,1.9375 1.28125,-1 -0.65625,-1.5 2.8125,-1.125 0.28125,0.65625 1.28125,-1.03125 -0.0937,-0.1875 0.65625,-0.25 4.25,-3.40625 -1.84375,0.71875 -1.1875,-2.75 2.78125,-1.09375 1.0625,2.46875 1.3125,-1.03125 -0.875,-2.03125 2.9375,-1.15625 0.5,1.125 1.28125,-1.03125 -0.28125,-0.65625 2.15625,-0.84375 4.25,-3.375 -2.75,1.0625 -1.1875,-2.75 2.78125,-1.09375 1.1875,2.75 1.3125,-1.0625 -1,-2.28125 1.15625,-0.4375 -0.375,-1.59375 -1.4375,0.5625 -1.1875,-2.75 1.9375,-0.75 -0.375,-1.59375 -2.1875,0.875 -1.28125,-2.90625 2.75,-1.0625 -0.46875,-1.96875 0.34375,-2.4375 -0.1875,-0.4375 0.25,-0.0937 0.25,-1.8125 -1.125,0.4375 -1.125,-2.59375 2.71875,-1.0625 0.5,-3.53125 -0.59375,-1.375 0.8125,-0.3125 0.25,-1.8125 -1.6875,0.65625 -1.28125,-2.90625 2.78125,-1.09375 0.5,1.15625 0.4375,-3.03125 L 220.71875,257.25 z m -0.75,2.25 1.1875,2.75 -2.78125,1.09375 -1.1875,-2.75 2.78125,-1.09375 z m -4.28125,1.6875 1.21875,2.75 -3,1.15625 -1.1875,-2.71875 2.96875,-1.1875 z m -4.4375,1.75 1.1875,2.75 -2.78125,1.09375 -1.1875,-2.75 2.78125,-1.09375 z m 10.5625,0.8125 1.25,2.875 -2.78125,1.09375 -1.25,-2.875 2.78125,-1.09375 z m -14.84375,0.875 1.1875,2.75 -2.78125,1.09375 -1.1875,-2.75 2.78125,-1.09375 z m 10.5625,0.78125 1.25,2.90625 -2.96875,1.1875 -1.25,-2.90625 2.96875,-1.1875 z m -14.84375,0.90625 1.1875,2.75 -2.78125,1.0625 -1.1875,-2.71875 2.78125,-1.09375 z m 10.40625,0.84375 1.25,2.90625 -2.78125,1.09375 -1.25,-2.90625 2.78125,-1.09375 z m -14.65625,0.8125 1.1875,2.75 -2.96875,1.15625 -1.1875,-2.75 2.96875,-1.15625 z m 25.28125,0.15625 1.1875,2.75 -2.78125,1.09375 -1.1875,-2.75 2.78125,-1.09375 z m -14.90625,0.71875 1.25,2.90625 -2.78125,1.09375 -1.25,-2.90625 2.78125,-1.09375 z m -14.84375,0.875 1.21875,2.75 -2.78125,1.09375 -1.21875,-2.75 2.78125,-1.09375 z m 25.46875,0.0937 1.1875,2.71875 -2.96875,1.1875 -1.1875,-2.75 2.96875,-1.15625 z m -14.90625,0.71875 1.25,2.90625 -2.78125,1.09375 -1.25,-2.90625 2.78125,-1.09375 z m -14.84375,0.875 1.1875,2.75 -2.1875,0.875 -1.1875,-2.75 2.1875,-0.875 z m 25.3125,0.125 1.1875,2.75 -2.78125,1.09375 -1.1875,-2.75 2.78125,-1.0937 z m -14.75,0.65625 1.25,2.9375 -2.9375,1.15625 -1.25,-2.90625 2.9375,-1.1875 z m 25.28125,0.15625 1.1875,2.75 -2.78125,1.09375 -1.1875,-2.75 2.78125,-1.09375 z m -39.5,0.5 1.1875,2.75 -2.8125,1.125 -1.1875,-2.75 2.8125,-1.125 z m 24.6875,0.375 1.1875,2.75 -2.78125,1.09375 -1.1875,-2.75 2.78125,-1.09375 z m -14.90625,0.71875 1.25,2.9375 -2.78125,1.09375 -1.25,-2.9375 2.78125,-1.09375 z M 221.25,274 l 1.1875,2.78125 -2.96875,1.15625 -1.1875,-2.75 L 221.25,274 z m -39.5,0.53125 1.1875,2.75 -2.96875,1.15625 -1.1875,-2.75 2.96875,-1.15625 z m 24.6875,0.375 1.1875,2.75 -2.78125,1.09375 -1.1875,-2.75 2.78125,-1.09375 z m -14.90625,0.71875 1.25,2.90625 -2.1875,0.875 -1.28125,-2.90625 2.21875,-0.875 z m 25.28125,0.125 1.1875,2.75 -2.78125,1.09375 -1.1875,-2.75 2.78125,-1.09375 z m 10.5625,0.8125 1.1875,2.75 -2.78125,1.09375 -1.1875,-2.75 2.78125,-1.09375 z m -25.21875,0.0312 1.1875,2.71875 -2.9375,1.15625 -1.21875,-2.71875 2.96875,-1.15625 z m -14.3125,0.46875 1.28125,2.9375 -2.8125,1.09375 -1.28125,-2.90625 2.8125,-1.125 z m 24.6875,0.375 1.1875,2.75 -2.78125,1.09375 -1.1875,-2.75 2.78125,-1.09375 z m 10.5625,0.8125 1.1875,2.71875 -2.96875,1.1875 -1.1875,-2.75 2.96875,-1.15625 z m -25.375,0.0625 1.1875,2.75 -2.78125,1.09375 -1.1875,-2.75 2.78125,-1.09375 z m -14.15625,0.4375 1.28125,2.9375 -2.96875,1.15625 -1.28125,-2.9375 2.96875,-1.15625 z m 24.6875,0.375 1.1875,2.75 -2.78125,1.09375 -1.1875,-2.75 2.78125,-1.09375 z m 10.40625,0.84375 1.1875,2.75 -2.78125,1.09375 -1.1875,-2.75 2.78125,-1.09375 z M 193.4375,280 l 1.1875,2.75 -2.21875,0.875 -1.1875,-2.75 2.21875,-0.875 z m 35.75,0.78125 1.25,2.90625 -2.78125,1.09375 -1.25,-2.90625 2.78125,-1.09375 z m -25.21875,0.0312 1.1875,2.75 -2.9375,1.15625 -1.1875,-2.75 2.9375,-1.15625 z m -14.21875,0.625 1.1875,2.75 -2.8125,1.125 -1.1875,-2.75 2.8125,-1.125 z m 24.625,0.21875 1.1875,2.75 -2.78125,1.09375 -1.1875,-2.75 2.78125,-1.09375 z m 10.53125,0.8125 1.28125,2.90625 -2.96875,1.15625 -1.28125,-2.90625 2.96875,-1.15625 z m -25.375,0.0625 1.1875,2.75 -2.78125,1.09375 -1.1875,-2.75 2.78125,-1.09375 z m -14.0625,0.59375 1.1875,2.75 -2.96875,1.15625 -1.1875,-2.75 2.96875,-1.15625 z m 24.625,0.21875 1.1875,2.75 -2.78125,1.09375 -1.1875,-2.75 2.78125,-1.09375 z m -14.84375,0.875 1.1875,2.75 -2.1875,0.875 -1.21875,-2.75 2.21875,-0.875 z m 25.21875,0 1.28125,2.875 -2.78125,1.09375 -1.28125,-2.875 2.78125,-1.09375 z m -39.4375,0.65625 1.1875,2.75 -2.8125,1.09375 -1.1875,-2.75 2.8125,-1.09375 z m 24.78125,0.15625 1.1875,2.75 -2.9375,1.15625 -1.1875,-2.75 2.9375,-1.15625 z m 25.28125,0.125 1.1875,2.75 1.5625,3.625 -2.78125,1.09375 -0.90625,-2.15625 2.71875,-1.0625 -0.59375,-1.5 L 229.5,289 l -1.1875,-2.75 2.78125,-1.09375 z m -39.5,0.5 1.1875,2.75 -2.8125,1.125 -1.21875,-2.75 2.84375,-1.125 z m 24.59375,0.21875 1.28125,2.90625 -2.8125,1.09375 -1.25,-2.90625 2.78125,-1.09375 z m -14.8125,0.90625 1.1875,2.71875 -2.78125,1.09375 -1.1875,-2.71875 2.78125,-1.09375 z m 25.4375,0.0625 1.1875,2.75 -2.96875,1.15625 -1.1875,-2.75 2.96875,-1.15625 z m -39.5,0.5 1.1875,2.75 -2.96875,1.1875 -1.1875,-2.75 2.96875,-1.1875 z m 24.59375,0.21875 1.25,2.90625 -2.78125,1.09375 -1.25,-2.90625 2.78125,-1.09375 z m -14.8125,0.875 1.1875,2.75 -2.21875,0.875 -1.1875,-2.75 2.21875,-0.875 z m 25.28125,0.15625 1.1875,2.75 -2.78125,1.0625 -1.1875,-2.71875 2.78125,-1.09375 z m -39.53125,0.5 1.21875,2.75 -2.8125,1.09375 -1.1875,-2.75 2.78125,-1.09375 z m 24.78125,0.15625 1.28125,2.90625 -2.96875,1.15625 -1.25,-2.90625 2.9375,-1.15625 z m -14.21875,0.65625 1.1875,2.71875 -2.8125,1.125 -1.1875,-2.75 2.8125,-1.09375 z m 24.6875,0.34375 1.1875,2.75 -2.78125,1.09375 -1.1875,-2.75 2.78125,-1.09375 z M 203.1875,291 204.46875,293.90625 201.6875,295 200.40625,292.09375 203.1875,291 z m 25.46875,0.0625 0.9375,2.15625 -2.96875,1.15625 -0.9375,-2.15625 2.96875,-1.15625 z m -39.53125,0.53125 1.1875,2.71875 -2.96875,1.1875 -1.1875,-2.75 2.96875,-1.15625 z m 24.6875,0.34375 1.1875,2.75 -2.78125,1.09375 -1.1875,-2.75 2.78125,-1.09375 z m -14.90625,0.75 1.28125,2.875 -2.21875,0.875 -1.25,-2.90625 2.1875,-0.84375 z m 25.3125,0.125 0.90625,2.15625 -2.78125,1.09375 -0.90625,-2.15625 2.78125,-1.09375 z M 234.5,293 l 1.1875,2.75 -2.78125,1.09375 -1.1875,-2.75 L 234.5,293 z m -49.8125,0.3125 1.1875,2.75 -2.8125,1.09375 -1.1875,-2.71875 2.8125,-1.125 z m 24.84375,0.3125 1.1875,2.75 -2.9375,1.15625 -1.1875,-2.75 2.9375,-1.15625 z m -14.28125,0.5 1.25,2.90625 -2.8125,1.09375 -1.25,-2.90625 2.8125,-1.09375 z m 24.6875,0.375 0.9375,2.15625 -2.8125,1.09375 -0.90625,-2.15625 2.78125,-1.09375 z m 10.28125,0.15625 1.1875,2.78125 -2.96875,1.15625 -1.1875,-2.75 2.96875,-1.1875 z m -25.125,0.71875 1.1875,2.75 -2.78125,1.09375 -1.1875,-2.75 2.78125,-1.09375 z m -14.125,0.4375 1.25,2.875 -2.96875,1.1875 -1.25,-2.90625 2.96875,-1.15625 z m 24.6875,0.375 0.90625,2.125 -2.78125,1.09375 -0.90625,-2.15625 2.78125,-1.0625 z m 10.125,0.21875 1.1875,2.78125 -2.78125,1.09375 L 223,297.5 l 2.78125,-1.09375 z m -24.96875,0.65625 1.1875,2.71875 -2.21875,0.875 -1.1875,-2.75 2.21875,-0.84375 z m -14.28125,0.46875 1.25,2.90625 -2.8125,1.125 -1.25,-2.90625 2.8125,-1.125 z m 24.84375,0.3125 0.9375,2.15625 -2.96875,1.15625 -0.9375,-2.15625 2.96875,-1.15625 z m 10.125,0.25 1.1875,2.78125 -2.78125,1.09375 -1.1875,-2.78125 2.78125,-1.09375 z m -24.375,0.40625 1.1875,2.75 -2.8125,1.09375 -1.1875,-2.75 2.8125,-1.09375 z m 34.90625,0.40625 1.28125,2.90625 -2.96875,1.15625 -1.28125,-2.90625 2.96875,-1.15625 z m -25.09375,0.6875 0.9375,2.15625 -2.78125,1.09375 -0.9375,-2.15625 2.78125,-1.09375 z m 10.28125,0.1875 1.1875,2.78125 -2.78125,1.09375 -1.1875,-2.78125 2.78125,-1.09375 z m -24.375,0.40625 1.1875,2.71875 -2.9375,1.1875 -1.21875,-2.75 2.96875,-1.15625 z m 34.75,0.4375 1.28125,2.9375 -2.78125,1.09375 -1.28125,-2.9375 2.78125,-1.09375 z m -24.9375,0.65625 0.90625,2.15625 -2.1875,0.875 -0.9375,-2.15625 2.21875,-0.875 z m 10.28125,0.1875 1.1875,2.75 -2.9375,1.15625 -1.21875,-2.75 2.96875,-1.15625 z m -24.53125,0.4375 1.1875,2.75 -2.8125,1.125 -1.1875,-2.75 2.8125,-1.125 z m 34.90625,0.40625 1.28125,2.9375 -2.78125,1.09375 -1.28125,-2.9375 2.78125,-1.09375 z m -24.34375,0.40625 0.9375,2.15625 -2.8125,1.09375 -0.9375,-2.15625 2.8125,-1.09375 z m 9.53125,0.46875 1.1875,2.78125 -2.78125,1.09375 -1.1875,-2.78125 2.78125,-1.09375 z m 25.4375,0.0937 1.1875,2.75 -2.9375,1.1875 -1.21875,-2.78125 2.96875,-1.15625 z m -49.8125,0.3125 1.1875,2.75 -2.625,1.03125 -1.1875,-2.75 2.625,-1.03125 z m 34.90625,0.4063 1.28125,2.9375 -2.78125,1.09375 L 216.25,305.09375 219.03125,304 z m -24.34375,0.40625 0.9375,2.15625 -2.96875,1.15625 -0.9375,-2.15625 2.96875,-1.15625 z m 9.53125,0.46875 1.1875,2.78125 -2.21875,0.875 L 202,305.75 l 2.21875,-0.875 z m 25.28125,0.15625 1.1875,2.75 -2.78125,1.09375 -1.1875,-2.78125 2.78125,-1.0625 z m -14.75,0.65625 1.28125,2.90625 -2.9375,1.15625 -1.28125,-2.90625 2.9375,-1.15625 z m -24.5,0.46875 0.9375,2.15625 -2.8125,1.09375 -0.9375,-2.15625 2.8125,-1.09375 z m 10.28125,0.15625 1.1875,2.78125 -2.8125,1.125 -1.1875,-2.78125 2.8125,-1.125 z m 24.6875,0.375 1.1875,2.78125 -2.78125,1.09375 -1.1875,-2.78125 2.78125,-1.09375 z m -14.90625,0.75 1.28125,2.90625 -2.78125,1.09375 -1.28125,-2.9375 2.78125,-1.0625 z m -24.34375,0.375 0.9375,2.15625 -2.65625,1.0625 -0.9375,-2.15625 2.65625,-1.0625 z M 196.25,308 l 1.1875,2.78125 -2.9375,1.15625 -1.21875,-2.78125 L 196.25,308 z m 24.6875,0.375 1.1875,2.78125 -2.78125,1.09375 -1.1875,-2.78125 2.78125,-1.09375 z m -14.90625,0.71875 1.28125,2.9375 -2.21875,0.875 -1.25,-2.9375 2.1875,-0.875 z m 25.28125,0.125 1.125,2.59375 -2.78125,1.09375 -1.125,-2.59375 2.78125,-1.09375 z M 191.8125,309.75 193,312.53125 190.1875,313.625 189,310.84375 191.8125,309.75 z m 24.84375,0.3125 1.1875,2.78125 -2.9375,1.15625 -1.1875,-2.78125 2.9375,-1.15625 z m -14.28125,0.5 1.25,2.90625 -2.8125,1.09375 -1.28125,-2.90625 2.84375,-1.09375 z m 24.65625,0.34375 1.125,2.59375 -2.78125,1.09375 L 224.25,312 l 2.78125,-1.09375 z m -39.5,0.53125 1.1875,2.78125 -2.625,1.03125 -1.21875,-2.78125 2.65625,-1.03125 z m 24.6875,0.375 1.1875,2.75 -2.78125,1.09375 -1.1875,-2.75 2.78125,-1.09375 z m -14.125,0.40625 1.25,2.9375 -2.96875,1.15625 -1.25,-2.90625 2.96875,-1.1875 z m 24.65625,0.375 1.125,2.59375 -2.78125,1.09375 -1.125,-2.59375 2.78125,-1.09375 z m 10.34375,0.71875 1.1875,2.75 -2.78125,1.0625 -1.1875,-2.71875 2.78125,-1.09375 z m -25.15625,0.15625 1.1875,2.78125 -2.1875,0.875 -1.21875,-2.78125 2.21875,-0.875 z m -14.3125,0.5 1.28125,2.9375 -2.8125,1.09375 -1.25,-2.9375 2.78125,-1.09375 z m 24.875,0.3125 1.125,2.59375 -2.96875,1.15625 -1.125,-2.59375 2.96875,-1.15625 z m -14.25,0.65625 1.21875,2.75 -2.8125,1.125 -1.21875,-2.78125 2.8125,-1.09375 z m 24.5625,0.0312 1.1875,2.75 -2.78125,1.09375 -1.1875,-2.71875 2.78125,-1.125 z m -39.46875,0.6875 1.28125,2.90625 -2.625,1.0625 -1.28125,-2.9375 2.625,-1.03125 z m 24.6875,0.375 1.15625,2.59375 -2.78125,1.09375 -1.15625,-2.59375 2.78125,-1.09375 z m -14.0625,0.5625 1.21875,2.78125 -2.96875,1.15625 -1.21875,-2.75 2.96875,-1.1875 z m 24.5625,0.0625 1.1875,2.75 -2.78125,1.09375 -1.1875,-2.75 2.78125,-1.09375 z m -14.78125,1.03125 1.125,2.625 -2.1875,0.875 -1.125,-2.625 2.1875,-0.875 z m -14.21875,0.65625 1.21875,2.78125 -2.8125,1.09375 -1.21875,-2.75 2.8125,-1.125 z m 24.71875,0 1.1875,2.75 -2.9375,1.15625 -1.1875,-2.75 2.9375,-1.15625 z m -14.15625,0.8125 1.125,2.59375 -2.8125,1.09375 -1.125,-2.59375 2.8125,-1.09375 z m 24.5625,0.0625 1.25,2.90625 -2.78125,1.09375 -1.28125,-2.90625 2.8125,-1.09375 z m -39.40625,0.8125 1.21875,2.78125 -2.65625,1.03125 -1.1875,-2.78125 2.625,-1.03125 z m 24.5625,0.0625 1.1875,2.75 -2.78125,1.09375 -1.1875,-2.75 2.78125,-1.09375 z m -14,0.75 1.125,2.59375 -2.96875,1.15625 -1.125,-2.59375 2.96875,-1.15625 z m 24.53125,0.0312 1.28125,2.90625 -2.78125,1.09375 -1.28125,-2.90625 2.78125,-1.09375 z m -39.21875,0.78125 1.21875,2.78125 -2.78125,1.0625 -1.21875,-2.75 2.78125,-1.09375 z m 24.40625,0.125 1.1875,2.75 -2.21875,0.84375 -1.1875,-2.75 2.21875,-0.84375 z m -14.15625,0.78125 1.125,2.625 -2.8125,1.09375 -1.125,-2.59375 2.8125,-1.125 z m 24.71875,0 1.25,2.90625 -2.9375,1.15625 -1.28125,-2.90625 2.96875,-1.15625 z m -14.25,0.65625 1.1875,2.75 -2.8125,1.09375 -1.1875,-2.75 2.8125,-1.09375 z m 24.6875,0.375 1.1875,2.75 -2.78125,1.09375 -1.1875,-2.75 2.78125,-1.09375 z m -39.4375,0.65625 1.125,2.625 -2.625,1.03125 -1.15625,-2.625 2.65625,-1.03125 z m 24.53125,0.0625 1.28125,2.90625 -2.78125,1.09375 -1.28125,-2.90625 2.78125,-1.09375 z m -14.0625,0.59375 1.1875,2.75 -2.96875,1.15625 -1.1875,-2.75 2.96875,-1.15625 z m 24.6875,0.375 1.1875,2.71875 -2.78125,1.09375 -1.1875,-2.71875 2.78125,-1.09375 z m -39.28125,0.59375 1.125,2.625 -2.78125,1.09375 -1.125,-2.625 2.78125,-1.09375 z m 24.375,0.125 1.28125,2.90625 -2.21875,0.875 -1.25,-2.90625 2.1875,-0.875 z m -14.21875,0.65625 1.1875,2.71875 -2.8125,1.125 -1.1875,-2.75 2.8125,-1.09375 z m 24.84375,0.28125 1.1875,2.75 -2.9375,1.15625 -1.1875,-2.75 2.9375,-1.15625 z m -14.28125,0.5 1.25,2.90625 -2.8125,1.125 -1.25,-2.9375 2.8125,-1.09375 z m -14.84375,0.875 1.1875,2.75 -2.625,1.03125 -1.1875,-2.71875 2.625,-1.0625 z m 24.6875,0.375 1.1875,2.75 -2.78125,1.09375 -1.1875,-2.75 2.78125,-1.09375 z m -14.125,0.4375 1.25,2.90625 -2.96875,1.1875 -1.25,-2.9375 2.96875,-1.15625 z m 24.6875,0.375 1.1875,2.75 -2.78125,1.09375 -1.1875,-2.78125 2.78125,-1.0625 z m -39.375,0.4375 1.1875,2.75 -2.78125,1.09375 -1.1875,-2.75 2.78125,-1.09375 z m 24.53125,0.4375 1.1875,2.75 -2.1875,0.84375 -1.1875,-2.71875 2.1875,-0.875 z m -14.28125,0.5 1.25,2.90625 -2.8125,1.09375 -1.25,-2.90625 2.8125,-1.09375 z m 24.84375,0.28125 1.1875,2.75 -2.9375,1.15625 -1.1875,-2.75 2.9375,-1.15625 z m -14.21875,0.65625 1.1875,2.75 -2.8125,1.09375 -1.21875,-2.75 2.84375,-1.09375 z m -14.90625,0.71875 1.25,2.9375 -2.625,1.03125 -1.28125,-2.9375 2.65625,-1.03125 z m 24.6875,0.375 1.1875,2.75 -2.78125,1.09375 -1.1875,-2.75 2.78125,-1.09375 z m -14.09375,0.59375 1.1875,2.75 -2.9375,1.15625 -1.1875,-2.75 2.9375,-1.15625 z m -14.71875,0.65625 1.25,2.9375 -2.78125,1.09375 -1.25,-2.9375 2.78125,-1.09375 z m 24.53125,0.4375 1.1875,2.75 -2.21875,0.875 -1.1875,-2.75 2.21875,-0.875 z m -14.25,0.65625 1.1875,2.75 -2.78125,1.09375 -1.21875,-2.75 2.8125,-1.09375 z m 10.5625,0.78125 1.1875,2.75 -2.8125,1.09375 -1.1875,-2.71875 2.8125,-1.125 z m -14.84375,0.875 1.21875,2.75 -2.65625,1.03125 -1.1875,-2.71875 2.625,-1.0625 z m 10.5625,0.8125 1.1875,2.75 -2.96875,1.15625 -1.1875,-2.75 2.96875,-1.15625 z m -14.6875,0.8125 1.1875,2.75 -2.78125,1.09375 -1.1875,-2.75 2.78125,-1.09375 z m 24.46875,0.28125 1.1875,2.75 -2.1875,0.875 -1.1875,-2.75 2.1875,-0.875 z m -14.21875,0.65625 1.1875,2.75 -2.8125,1.09375 -1.1875,-2.75 2.8125,-1.09375 z m 10.5625,0.78125 1.1875,2.75 -2.8125,1.09375 -1.1875,-2.71875 2.8125,-1.125 z m -14.84375,0.90625 1.1875,2.71875 -2.625,1.0625 -1.1875,-2.75 2.625,-1.03125 z m 10.5625,0.78125 1.1875,2.75 -2.96875,1.15625 -1.1875,-2.75 2.96875,-1.15625 z m -14.6875,0.8125 1.1875,2.75 -2.78125,1.09375 -1.1875,-2.75 2.78125,-1.09375 z m 10.21875,0.9375 1.21875,2.75 -2.8125,1.09375 -1.1875,-2.75 2.78125,-1.09375 z m -4.25,1.6875 1.1875,2.75 -2.65625,1.03125 -1.1875,-2.75 2.65625,-1.03125 z m -4.125,1.625 1.1875,2.71875 -2.78125,1.09375 -1.1875,-2.71875 L 198.125,347 z m 10.21875,0.90625 1.25,2.90625 -2.8125,1.09375 -1.25,-2.90625 2.8125,-1.09375 z m -4.28125,1.6875 1.25,2.90625 -2.625,1.03125 -1.25,-2.90625 2.625,-1.03125 z m -4.125,1.625 1.25,2.90625 -2.78125,1.09375 -1.25,-2.90625 2.78125,-1.09375 z" style="fill:#000000;fill-opacity:0.09019608;fill-rule:nonzero;stroke:none"/>
      <path sodipodi:nodetypes="ccsccc" inkscape:connector-curvature="0" id="path3937" d="m 169.34375,235.34375 13.46875,84.9375 c 6.07658,-7.6166 18.01444,-12.8125 31.78125,-12.8125 7.55213,0 14.58194,1.55381 20.375,4.21875 l 7.5625,-54.0625 z" style="fill:#000000;fill-opacity:0.43137255;fill-rule:nonzero;stroke:none"/>
    </g>
    <path style="fill:#000000;fill-opacity:1;fill-rule:nonzero;stroke:none;display:inline" d="m 226.00704,272.99556 0,43.9375 2.90625,0 0,-43.9375 -2.90625,0 z m -6.4375,0.71875 0,43.90625 2.90625,0 0,-43.90625 -2.90625,0 z m -6.65625,0.25 0,43.9375 2.9375,0 0,-43.9375 -2.9375,0 z m -6.1875,0.53125 0,43.9375 2.9375,0 0,-43.9375 -2.9375,0 z m -6.4375,0.53125 0,43.9375 2.90625,0 0,-43.9375 -2.90625,0 z m -6.4375,0.71875 0,43.90625 2.90625,0 0,-43.90625 -2.90625,0 z m -6.65625,0.25 0,43.9375 2.9375,0 0,-43.9375 -2.9375,0 z" id="rect4421" inkscape:connector-curvature="0"/>
    <rect style="fill:#604134;fill-opacity:1;fill-rule:nonzero;stroke:none" id="rect3926" width="229.1026" height="111.72287" x="81.317284" y="134.93903"/>
    <path style="fill:#000000;fill-opacity:0.09411765;fill-rule:nonzero;stroke:none" d="m 81.3125,134.9375 0,20.34375 3.34375,0.90625 -1.125,4.25 -2.21875,-0.59375 0,4.25 1.15625,0.28125 -1.125,4.25 -0.03125,0 0,15.65625 0.65625,-2.4375 4.1875,1.15625 -1.0625,3.78125 -3.78125,-1 0,4.25 2.75,0.75 -1.15625,4.34375 -1.59375,-0.4375 0,4.125 0.5625,0.15625 -0.5625,2.0625 0,16 0.15625,-0.5625 4.21875,1.125 -1.09375,4.15625 -3.28125,-0.9375 0,4.15625 2.25,0.625 -1.15625,4.34375 -1.09375,-0.3125 0,4.25 0.03125,0 -0.03125,0.125 0,12.65625 0.90625,0 0.9375,-3.59375 4.09375,1.0625 -0.6875,2.53125 4.1875,0 0.40625,-1.4375 4.3125,1.15625 -0.0625,0.28125 16.9375,0 -3.71875,-1.03125 1.0625,-4.21875 4.34375,1.15625 -1.09375,4.09375 4.1875,0 0.78125,-3 3.90625,1 -0.5,2 4.25,0 0.25,-0.875 3.4375,0.875 15.5,0 -1.59375,-0.40625 1.1875,-4.34375 4.3125,1.1875 -1,3.5625 4.21875,0 0.6875,-2.59375 4.59375,1.28125 -0.34375,1.3125 4.28125,0 0.0625,-0.28125 1.0625,0.28125 16.40625,0 1.03125,-3.875 4.25,1.125 -0.71875,2.75 4.25,0 0.46875,-1.71875 3.84375,1.03125 -0.1875,0.6875 21.8125,0 0.875,-3.4375 4.34375,1.15625 -0.65625,2.28125 4.28125,0 0.3125,-1.21875 4.125,1.09375 -0.0312,0.125 16.28125,0 -3.09375,-0.875 1.125,-4.125 4.1875,1.0625 -1.03125,3.9375 4.25,0 0.78125,-2.8125 4.21875,1.125 -0.4375,1.6875 4.25,0 0.1875,-0.65625 2.34375,0.65625 15.53125,0 -0.75,-0.1875 1.15625,-4.34375 4.1875,1.0625 -0.9375,3.46875 4.1875,0 0.625,-2.375 4.34375,1.15625 -0.3125,1.21875 4.15625,0 0.0625,-0.21875 0.78125,0.21875 16.1875,0 1,-3.75 0.5,0.125 0,-21.75 -3.25,-0.875 1.125,-4.3125 2.125,0.59375 0,-4.28125 -1.03125,-0.28125 1.03125,-4 0,-15.78125 -0.53125,2 -3.65625,-0.96875 1.0625,-4.21875 3.125,0.90625 0,-4.3125 -2.0625,-0.53125 1.15625,-4.25 0.90625,0.25 0,-21.59375 -3.71875,-0.9375 1.09375,-4.21875 2.625,0.71875 0,-4.1875 -1.53125,-0.40625 1.15625,-4.34375 0.375,0.0937 0,-11.40625 -10.4375,0 0.125,0.0312 -1.0938,4.15635 -4.34375,-1.15625 0.8125,-3.03125 -4.21875,0 -0.53125,1.96875 -3.84375,-1.03125 0.25,-0.9375 -21.78125,0 -0.96875,3.6875 -4.3125,-1.09375 0.6875,-2.59375 -4.21875,0 -0.40625,1.53125 -4.15625,-1.125 0.0937,-0.40625 -17.1875,0 3.875,1.03125 -1.0625,4.21875 -4.25,-1.125 1.15625,-4.125 -4.1875,0 -0.8125,3.09375 -4.34375,-1.1875 0.5,-1.90625 -4.28125,0 -0.25,0.84375 -3.15625,-0.84375 -15.84375,0 1.96875,0.5 -1.15625,4.34375 -4.21875,-1.0625 1.03125,-3.78125 -4.28125,0 -0.71875,2.65625 -4.25,-1.15625 0.40625,-1.5 -4.21875,0 -0.125,0.46875 -1.71875,-0.46875 -16.125,0 -1,3.75 -4.1875,-1.0625 0.71875,-2.6875 -4.28125,0 -0.40625,1.625 -4.25,-1.1875 0.125,-0.4375 -21.53125,0 -0.875,3.28125 -4.1875,-1.0625 0.59375,-2.21875 -4.1875,0 -0.3125,1.125 -4.09375,-1.125 -16.03125,0 2.75,0.75 -1.1875,4.15625 -4.21875,-1.125 1.03125,-3.78125 -4.25,0 -0.71875,2.71875 -4.15625,-1.09375 0.40625,-1.625 -4.1875,0 -0.15625,0.5625 -2.125,-0.5625 -6.78125,0 z m 56.90625,0.0937 4.3125,1.15625 -1.125,4.25 -4.34375,-1.15625 1.15625,-4.25 z m 131.1875,0.34375 4.1875,1.15625 -1.15625,4.25 -4.1875,-1.0625 1.15625,-4.34375 z m -96.65625,0.4688 4.34375,1.15625 -1.0625,3.9375 -4.34375,-1.15625 1.0625,-3.9375 z m 131.28125,0.1875 4.1875,1.1875 -1.03125,4.09375 -4.25,-1.125 1.09375,-4.15625 z M 208.125,136.5 l 4.28125,1.1875 -1.1875,4.28125 -4.25,-1.125 L 208.125,136.5 z m -96.53125,0.21875 4.15625,1.125 -1.1875,4.1875 -4.03125,-1.09375 1.0625,-4.21875 z m 131.09375,0.3125 4.28125,1.21875 -1.09375,4.125 -4.25,-1.125 1.0625,-4.21875 z M 146.5,137.25 l 3.84375,1.03125 -1.125,4.3125 -3.9375,-1.0625 L 146.5,137.25 z m 131.09375,0.3125 4.25,1.125 -1.1875,4.34375 -4.21875,-1.125 1.15625,-4.34375 z m -96.625,0.53125 4.59375,1.1875 -1.0625,3.9375 -4.5625,-1.28125 1.03125,-3.84375 z M 84.875,138.25 l 4.28125,1.1875 -1.125,4.25 -4.3125,-1.125 1.15625,-4.3125 z m 131.46875,0.5 3.84375,1.03125 -1.15625,4.34375 -3.84375,-1.03125 1.15625,-4.34375 z m -96.71875,0.1875 4.3125,1.09375 -1.09375,4.21875 -4.34375,-1.1875 1.125,-4.125 z m 131.34375,0.3125 4.15625,1.125 -1.1875,4.15625 -4.125,-1.09375 1.15625,-4.1875 z m -96.65625,0.15625 4.3125,1.09375 -1.21875,4.28125 -4.21875,-1.125 1.125,-4.25 z m 131.46875,0.34375 3.9375,1.0625 -1.15625,4.34375 -3.9375,-1.0625 1.15625,-4.34375 z m -96.21875,0.65625 4.21875,1.125 -1.03125,3.84375 -4.21875,-1.125 1.03125,-3.84375 z m -96.5,0.0312 4.1875,1.15625 -1.15625,4.25 -4.1875,-1.0625 1.15625,-4.34375 z m 131.09375,0.40625 4.3125,1.15625 -1.15625,4.34375 -4.28125,-1.21875 1.125,-4.28125 z m -96.28125,0.25 4.125,1.09375 -1.0625,4.21875 -4.25,-1.15625 1.1875,-4.15625 z m 131.09375,0.3125 4.34375,1.15625 -1.125,4.125 -4.28125,-1.09375 1.0625,-4.1875 z m -96.40625,0.15625 4.15625,1.15625 -1.125,4.25 -4.1875,-1.15625 1.15625,-4.25 z m 131.03125,0.34375 4.3125,1.09375 -1.15625,4.34375 -4.28125,-1.1875 1.125,-4.25 z m -95.8125,0.65625 4.1875,1.15625 -1.09375,3.875 -4.125,-1.09375 1.03125,-3.9375 z m -96.53125,0.0625 4.25,1.125 -1.1875,4.34375 -4.21875,-1.125 1.15625,-4.34375 z m 131.125,0.375 4.1875,1.15625 -1.15625,4.34375 -4.1875,-1.15625 L 232.375,143 z m -96.3125,0.28125 4.25,1.1875 -1.09375,4.15625 -4.34375,-1.15625 1.1875,-4.1875 z m 131.1875,0.34375 4.125,1.09375 -1.0625,4.21875 -4.25,-1.15625 1.1875,-4.15625 z m -96.59375,0.0937 4.3125,1.15625 -1.125,4.25 -4.34375,-1.15625 1.15625,-4.25 z m 131.28125,0.375 4.15625,1.09375 -1.1875,4.34375 -4.125,-1.09375 1.15625,-4.34375 z m -96.03125,0.6875 4.3125,1.09375 -1.0625,3.9375 -4.28125,-1.1875 1.03125,-3.84375 z m -96.46875,0.0312 4.125,1.125 -1.15625,4.3125 -4.125,-1.09375 1.15625,-4.34375 z m 131.125,0.375 4.25,1.125 -1.15625,4.34375 -4.25,-1.125 1.15625,-4.34375 z m -96.34375,0.28125 3.96875,1.0625 -1.1875,4.1875 -3.84375,-1.03125 1.0625,-4.21875 z m 131.125,0.3125 4.25,1.1875 -1.09375,4.1564 -4.25,-1.125 1.09375,-4.21875 z m -96.46875,0.1875 4.59375,1.1875 -1.15625,4.25 -4.59375,-1.1875 1.15625,-4.25 z m -96.25,0.5 4.34375,1.15625 -1.25,4.625 -4.34375,-1.15625 1.25,-4.625 z m 131.53125,0.46875 3.84375,1.03125 -1.0625,3.9375 -3.84375,-1.03125 1.0625,-3.9375 z m -96.6875,0.0937 4.28125,1.09375 -1.15625,4.34375 -4.28125,-1.21875 1.15625,-4.21875 z m 131.3125,0.40625 4.125,1.0625 -1.1875,4.3125 -4.125,-1.09375 1.1875,-4.28125 z m -96.65625,0.15625 4.21875,1.125 -1.0625,4.21875 -4.25,-1.15625 1.09375,-4.1875 z M 283.625,148 287.46875,149.03125 286.375,153.25 282.4375,152.1875 283.625,148 z m -96.1875,0.28125 4.25,1.125 -1.15625,4.25 -4.21875,-1.125 1.125,-4.25 z m -96.53125,0.40625 4.15625,1.09375 -1.25,4.625 -4.1875,-1.15625 1.28125,-4.5625 z m 131.03125,0.34375 4.34375,1.15625 -1.0625,3.9375 -4.3125,-1.15625 1.03125,-3.9375 z m -96.25,0.15625 4.1875,1.15625 -1.1875,4.28125 -4.15625,-1.125 1.15625,-4.3125 z m 131.09375,0.40625 4.34375,1.15625 -1.1875,4.34375 -4.25,-1.21875 1.09375,-4.28125 z m -96.4375,0.25 4.1875,1.0625 -1.15625,4.1875 -4.15625,-1.125 1.125,-4.125 z m 131.0625,0.25 4.34375,1.15625 -1.1875,4.1875 -4.34375,-1.1875 1.1875,-4.15625 z m -95.71875,0.34375 4.125,1.09375 -1.09375,4.3125 -4.1875,-1.15625 1.15625,-4.25 z M 99,150.84375 l 4.25,1.125 -1.1875,4.59375 -4.25,-1.125 L 99,150.84375 z m 131.15625,0.4375 4.21875,1.0625 -1.0625,3.9375 -4.125,-1.09375 0.96875,-3.90625 z m -96.28125,0.0937 4.28125,1.1875 -1.125,4.25 -4.3125,-1.125 1.15625,-4.3125 z m 131.15625,0.375 4.15625,1.15625 -1.15625,4.34375 -4.1875,-1.1875 1.1875,-4.3125 z m -96.59375,0.25 4.28125,1.09375 -1.0625,4.21875 -4.34375,-1.15625 1.125,-4.15625 z m 131.25,0.3125 4.1875,1.15625 -1.125,4.15625 -4.125,-1.125 1.0625,-4.1875 z m -95.875,0.34375 4.28125,1.09375 -1.1875,4.28125 -4.25,-1.125 1.15625,-4.25 z m -96.53125,0.40625 4.03125,1.09375 -1.1875,4.59375 -4.125,-1.125 1.28125,-4.5625 z m 131.0625,0.40625 4.25,1.125 -1.03125,3.84375 -4.25,-1.125 1.03125,-3.84375 z m -96.28125,0.0937 3.9375,1.0625 -1.15625,4.3125 -3.9375,-1.03125 1.15625,-4.34375 z m 131.15625,0.375 4.21875,1.125 -1.15625,4.34375 -4.25,-1.125 1.1875,-4.34375 z m -96.5625,0.21875 4.65625,1.25 -1.1875,4.1875 -4.625,-1.25 1.15625,-4.1875 z m 35.40625,0.65625 3.84375,1.03125 -1.15625,4.25 -3.84375,-1.03125 1.15625,-4.25 z m -96.8125,0.375 4.34375,1.1875 -1.25,4.625 -4.3125,-1.15625 1.21875,-4.65625 z m 131.34375,0.4375 4.09375,1.15625 -1.03125,3.84375 -4.125,-1.0625 1.0625,-3.9375 z m -96.625,0.0312 4.21875,1.15625 -1.15625,4.34375 -4.25,-1.15625 1.1875,-4.34375 z m 131.46875,0.53125 3.90625,1 -1.1875,4.34375 -3.9375,-1.0625 1.21875,-4.28125 z m -96.1875,0.28125 4.21875,1.125 -1.0625,4.21875 -4.34375,-1.1875 1.1875,-4.15625 z m 34.59375,0.4375 4.34375,1.15625 -1.15625,4.25 -4.28125,-1.09375 1.09375,-4.3125 z M 88.625,157.25 l 4.125,1.125 -1.125,4.21875 -4.21875,-1.0625 L 88.625,157.25 z m 34.84375,0.21875 4.21875,1.0625 -1.25,4.625 -4.15625,-1.15625 1.1875,-4.53125 z m 131.125,0.28125 4.3125,1.1875 -1.03125,3.9375 -4.34375,-1.15625 1.0625,-3.96875 z m -96.40625,0.1875 4.1875,1.0625 -1.15625,4.34375 -4.1875,-1.1875 1.15625,-4.21875 z m 131.03125,0.34375 4.34375,1.15625 -1.21875,4.28125 -4.28125,-1.09375 1.15625,-4.34375 z m -95.78125,0.375 4.21875,1.125 -1.15625,4.1875 -4.15625,-1.125 1.09375,-4.1875 z m 34.6875,0.46875 4.125,1.125 -1.125,4.21875 -4.21875,-1.0625 1.21875,-4.28125 z m -131.4375,0.28125 4.25,1.15625 -1.09375,4.28125 -4.28125,-1.1875 1.125,-4.25 z m 34.9375,0.1875 4.34375,1.15625 -1.25,4.625 -4.28125,-1.1875 1.1875,-4.59375 z m 131.1875,0.4375 4.1875,1.0625 -1.0625,3.9375 -4.15625,-1.15625 1.03125,-3.84375 z m -96.5625,0.0625 4.3125,1.09375 -1.15625,4.34375 -4.28125,-1.1875 1.125,-4.25 z M 297.5,160.5 l 4.1875,1.0625 -1.15625,4.34375 -4.1875,-1.0625 L 297.5,160.5 z m -95.875,0.34375 4.21875,1.125 -1.0625,4.21875 -4.25,-1.125 1.09375,-4.21875 z m 34.625,0.5 4.21875,1.15625 -1.125,4.21875 -4.25,-1.125 1.15625,-4.25 z m -131.28125,0.28125 4.0625,1.09375 -1.125,4.3125 -4.0625,-1.15625 1.125,-4.25 z m 34.9375,0.1875 3.84375,1.03125 -1.1875,4.59375 -3.9375,-1.0625 1.28125,-4.5625 z M 271,162.21875 l 4.21875,1.125 -1.03125,3.84375 -4.21875,-1.125 L 271,162.21875 z m -96.5,0.0312 4.625,1.25 -1.15625,4.3125 -4.625,-1.21875 L 174.5,162.25 z m 131.0625,0.40625 4.34375,1.15625 -1.15625,4.34375 -4.28125,-1.1875 1.09375,-4.3125 z m -95.71875,0.4375 3.84375,1.03125 -1.125,4.15625 -3.84375,-1.03125 1.125,-4.15625 z m 34.625,0.40625 4.09375,1.15625 -1.125,4.25 -4.09375,-1.15625 1.125,-4.25 z m -131.5,0.28125 4.34375,1.15625 -1.15625,4.25 -4.34375,-1.1875 1.15625,-4.21875 z m 34.8125,0.125 4.25,1.15625 -1.28125,4.5625 -4.21875,-1.125 1.25,-4.59375 z m 131.4375,0.46875 3.90625,1.09375 -1.03125,3.84375 -3.90625,-1 1.03125,-3.9375 z m -96.125,0.15625 4.21875,1.15625 -1.15625,4.34375 -4.25,-1.15625 1.1875,-4.34375 z m 34.59375,0.625 4.34375,1.15625 -1.1875,4.1875 -4.34375,-1.15625 1.1875,-4.1875 z m -131.34375,0.3125 4.21875,1.0625 -1.125,4.25 -4.1875,-1.15625 1.09375,-4.15625 z m 166.125,0.1875 4.34375,1.15625 -1.15625,4.25 -4.3125,-1.1875 1.125,-4.21875 z m -131.3125,0.3125 4.21875,1.125 -1.125,4.25 -4.1875,-1.0625 1.09375,-4.3125 z m 34.8125,0.125 4.15625,1.125 -1.1875,4.59375 -4.1875,-1.0625 1.21875,-4.65625 z m 131.0625,0.375 4.3125,1.15625 -1.03125,3.9375 -4.34375,-1.15625 1.0625,-3.9375 z M 191.25,166.75 l 4.25,1.125 -1.15625,4.34375 -4.25,-1.15625 1.15625,-4.3125 z m 34.625,0.59375 4.21875,1.125 -1.15625,4.1875 -4.15625,-1.09375 1.09375,-4.21875 z m -131.34375,0.3125 4.25,1.15625 -1.125,4.125 -4.28125,-1.09375 1.15625,-4.1875 z m 166.15625,0.25 4.21875,1.0625 -1.15625,4.25 -4.1875,-1.0625 1.125,-4.25 z m -131.34375,0.25 4.3125,1.15625 -1.125,4.25 -4.34375,-1.15625 1.15625,-4.25 z m 34.71875,0.125 4.34375,1.15625 -1.25,4.625 -4.34375,-1.15625 1.25,-4.625 z m 131.25,0.40625 4.15625,1.15625 -1.03125,3.84375 -4.1875,-1.0625 1.0625,-3.9375 z m -95.875,0.25 4.25,1.125 -1.15625,4.34375 -4.25,-1.125 1.15625,-4.34375 z m 34.59375,0.59375 4.25,1.15625 -1.0625,4.1875 -4.34375,-1.15625 1.15625,-4.1875 z m -131.3125,0.3125 4.15625,1.125 -1.125,4.125 -4.09375,-1.03125 1.0625,-4.21875 z m 166.125,0.1875 4.28125,1.1875 -1.15625,4.25 -4.21875,-1.125 1.09375,-4.3125 z M 137.625,170.375 l 3.84375,1.03125 -1.15625,4.25 -3.84375,-1.03125 1.15625,-4.25 z m 34.625,0.0937 4.625,1.25 -1.25,4.625 -4.5625,-1.28125 1.1875,-4.59375 z m 131.125,0.375 4.34375,1.15625 -1.0625,3.9375 -4.34375,-1.15625 1.0625,-3.9375 z m -95.71875,0.34375 3.84375,1.03125 -1.125,4.25 -3.84375,-1.03125 1.125,-4.25 z m 34.5625,0.53125 4.15625,1.125 -1.09375,4.1875 -4.125,-1.09375 1.0625,-4.21875 z m -131.4375,0.25 4.25,1.1875 -1.0625,4.21875 -4.34375,-1.1875 1.15625,-4.21875 z m 166.34375,0.2813 3.875,1.09375 -1.125,4.25 -3.90625,-1.09375 1.15625,-4.25 z m -131.625,0.25 4.25,1.125 -1.15625,4.25 -4.28125,-1.09375 L 145.5,172.5 z m 35.3125,0.25 4.34375,1.1875 -1.28125,4.5625 -4.21875,-1.125 1.15625,-4.625 z m 34.6875,0.5 4.28125,1.1875 -1.09375,4.3125 -4.34375,-1.1875 L 215.5,173.25 z m -131.34375,0.40625 4.21875,1.0625 -1.15625,4.25 -4.1875,-1.0625 1.125,-4.25 z m 166.15625,0.25 4.28125,1.1875 -1.125,4.15625 -4.3125,-1.1875 1.15625,-4.15625 z M 119,174.21875 l 4.125,1.09375 -1.0625,4.21875 -4.1875,-1.1875 1.125,-4.125 z m 165.90625,0.125 4.34375,1.15625 -1.15625,4.25 -4.3125,-1.15625 1.125,-4.25 z m -131.21875,0.34375 4.125,1.09375 -1.09375,4.3125 -4.1875,-1.15625 1.15625,-4.25 z m 35.40625,0.28125 4.15625,1.125 -1.1875,4.59375 -4.1875,-1.0625 1.21875,-4.65625 z m 34.59375,0.46875 4.25,1.125 -1.15625,4.34375 -4.25,-1.125 1.15625,-4.34375 z m -131.375,0.34375 4.28125,1.1875 -1.15625,4.25 -4.21875,-1.125 1.09375,-4.3125 z m 166.1875,0.3125 4.1875,1.15625 -1.125,4.15625 -4.125,-1.125 1.0625,-4.1875 z m -131.3125,0.3125 4.3125,1.15625 -1.15625,4.1875 -4.34375,-1.15625 1.1875,-4.1875 z m 166,0.15625 4.1875,1.15625 -1.15625,4.25 -4.15625,-1.15625 1.125,-4.25 z M 161.75,176.84375 166.09375,178 l -1.125,4.25 -4.34375,-1.15625 1.125,-4.25 z m 35.53125,0.34375 4.25,1.125 -1.28125,4.5625 -4.25,-1.125 1.28125,-4.5625 z m 34.59375,0.4375 4.25,1.125 -1.15625,4.34375 -4.25,-1.125 1.15625,-4.34375 z M 100.59375,178 l 4.0625,1.15625 -1.125,4.21875 -4.125,-1.09375 1.1875,-4.28125 z m 166.09375,0.28125 4.21875,1.125 -1.15625,4.1875 -4.25,-1.125 1.1875,-4.1875 z m -131.34375,0.3125 3.96875,1.0625 -1.1875,4.1875 -3.84375,-1.03125 1.0625,-4.21875 z m 165.9375,0.125 4.3125,1.15625 -1.125,4.25 -4.34375,-1.15625 1.15625,-4.25 z m -131.34375,0.3125 4.65625,1.25 -1.15625,4.25 -4.59375,-1.1875 1.09375,-4.3125 z m 35.53125,0.34375 3.84375,1.03125 -1.25,4.625 -3.84375,-1.03125 1.25,-4.625 z m 34.59375,0.4375 4.125,1.125 -1.15625,4.3125 -4.125,-1.09375 1.15625,-4.34375 z m -131.46875,0.34375 4.3125,1.15625 -1.125,4.21875 -4.34375,-1.15625 1.15625,-4.21875 z m 166.28125,0.3125 3.9375,1.0625 -1.1875,4.1875 -3.84375,-1.03125 1.09375,-4.21875 z m -131.625,0.25 4.21875,1.125 -1.0625,4.21875 -4.28125,-1.21875 1.125,-4.125 z m 35.28125,0.625 4.34375,1.15625 -1.21875,4.28125 -4.21875,-1.125 1.09375,-4.3125 z m 34.71875,0.125 4.34375,1.15625 -1.25,4.625 -4.25,-1.1875 1.15625,-4.59375 z m 34.90625,0.5 4.28125,1.21875 -1.15625,4.21875 -4.3125,-1.09375 1.1875,-4.34375 z m -131.34375,0.4375 4.1875,1.0625 -1.125,4.25 -4.21875,-1.09375 1.15625,-4.21875 z m 165.875,0.21875 4.3125,1.09375 -1.09375,4.21875 -4.34375,-1.1875 1.125,-4.125 z m -131.1875,0.25 4.15625,1.15625 -1.09375,4.15625 -4.21875,-1.09375 L 151.5,182.875 z m 35.3125,0.6875 4.125,1.09375 -1.125,4.25 -4.15625,-1.09375 1.15625,-4.25 z m 34.71875,0.125 4.15625,1.09375 -1.25,4.625 -4.1875,-1.15625 1.28125,-4.5625 z m -131.375,0.34375 4.25,1.125 L 93.375,189 l -4.25,-1.125 1.03125,-3.84375 z m 166.1875,0.15625 4.15625,1.15625 -1.125,4.25 -4.21875,-1.09375 1.1875,-4.3125 z m -131.40625,0.34375 4.34375,1.15625 -1.125,4.25 -4.3125,-1.09375 1.09375,-4.3125 z m 166.09375,0.28125 4.125,1.09375 -1.0625,4.21875 -4.25,-1.15625 1.1875,-4.15625 z m -131.46875,0.21875 4.28125,1.1875 -1.0625,4.21875 -4.34375,-1.15625 1.125,-4.25 z M 195,185.75 l 4.21875,1.125 -1.125,4.25 -4.3125,-1.09375 L 195,185.75 z m 34.625,0.0937 4.34375,1.15625 -1.28125,4.5625 -4.25,-1.125 1.1875,-4.59375 z m -131.28125,0.375 4.125,1.125 -1.03125,3.84375 -4.125,-1.125 1.03125,-3.84375 z M 264.5,186.375 l 4.25,1.125 -1.15625,4.34375 -4.25,-1.15625 1.15625,-4.3125 z m -131.34375,0.40625 3.90625,1 -1.09375,4.28125 -3.9375,-1.03125 1.125,-4.25 z m 165.96875,0.1875 4.25,1.1875 -1.09375,4.15625 -4.34375,-1.15625 1.1875,-4.1875 z m -131.34375,0.3125 4.65625,1.25 -1.1875,4.1875 -4.5625,-1.28125 1.09375,-4.15625 z m 35.40625,0.65625 3.84375,1.03125 -1.15625,4.25 -3.84375,-1.03125 1.15625,-4.25 z m 34.71875,0.125 4.125,1.09375 -1.25,4.59375 -4.125,-1.0625 1.25,-4.625 z m -131.53125,0.375 4.3125,1.15625 -1.0625,3.78125 -4.21875,-1.15625 0.96875,-3.78125 z m 166.3125,0.125 3.9375,1.0625 -1.15625,4.3125 -3.9375,-1.03125 1.15625,-4.34375 z m -131.625,0.34375 4.28125,1.09375 -1.1875,4.28125 -4.25,-1.15625 1.15625,-4.21875 z m 35.3125,0.6875 4.21875,1.125 -1.09375,4.15625 -4.25,-1.15625 1.125,-4.125 z m 34.59375,0.4375 4.34375,1.15625 -1.15625,4.25 -4.34375,-1.15625 1.15625,-4.25 z m 34.9375,0.15625 4.3125,1.1875 L 249,196 l -4.34375,-1.15625 1.25,-4.65625 z m -131.3125,0.40625 4.1875,1.15625 -1.0625,3.78125 -4.15625,-1.09375 1.03125,-3.84375 z m 165.9375,0.125 4.28125,1.09375 -1.15625,4.34375 -4.28125,-1.21875 1.15625,-4.21875 z m -131.25,0.34375 4.1875,1.15625 -1.125,4.25 -4.1875,-1.1875 1.125,-4.21875 z m 35.28125,0.71875 4.21875,1.125 -1.15625,4.1875 -4.15625,-1.125 1.09375,-4.1875 z M 88,191.84375 l 4.3125,1.09375 -1.15625,4.34375 -4.25,-1.125 L 88,191.84375 z m 131.25,0.40625 4.125,1.125 -1.125,4.21875 -4.15625,-1.09375 1.15625,-4.25 z m 34.9375,0.15625 4.125,1.125 -1.25,4.625 -4.15625,-1.15625 1.28125,-4.59375 z m -131.40625,0.375 4.28125,1.1875 -0.96875,3.8125 -4.34375,-1.15625 1.03125,-3.84375 z M 288.875,192.875 293,194 l -1.15625,4.34375 -4.15625,-1.125 1.1875,-4.34375 z m -131.5,0.34375 4.34375,1.15625 -1.125,4.25 -4.34375,-1.15625 1.125,-4.25 z m 35.34375,0.75 4.25,1.125 -1.0625,4.21875 -4.28125,-1.1875 1.09375,-4.15625 z m -96.4375,0.0937 4.125,1.0625 -1.1875,4.34375 -4.125,-1.125 1.1875,-4.28125 z m 131.03125,0.34375 4.34375,1.1875 -1.1875,4.25 -4.25,-1.125 1.09375,-4.3125 z m 34.9375,0.1875 4.28125,1.1875 -1.21875,4.53125 -4.25,-1.125 1.1875,-4.59375 z m -131.28125,0.375 3.9375,1.0625 -1.03125,3.84375 -3.9375,-1.0625 1.03125,-3.84375 z m 165.96875,0.0937 4.28125,1.1875 -1.125,4.25 -4.3125,-1.09375 1.15625,-4.34375 z m -131.34375,0.40625 4.59375,1.1875 -1.125,4.21875 -4.59375,-1.15625 1.125,-4.25 z m 35.375,0.65625 3.78125,1.0625 -1.0625,4.21875 -3.84375,-1.03125 1.125,-4.25 z m -96.6875,0.0937 4.34375,1.15625 -1.1875,4.34375 -4.3125,-1.15625 1.15625,-4.34375 z m 131.3125,0.40625 4.15625,1.125 -1.1875,4.28125 -4.09375,-1.15625 1.125,-4.25 z m 34.9375,0.1875 3.84375,1.03125 -1.15625,4.59375 -3.96875,-1.0625 1.28125,-4.5625 z m -131.6875,0.25 4.25,1.15625 -1.03125,3.84375 -4.25,-1.125 1.03125,-3.875 z m 166.28125,0.1875 3.6875,1.03125 -1.125,4.25 -3.71875,-0.9375 1.15625,-4.34375 z m -130.9375,0.53125 4.21875,1.125 -1.125,4.25 -4.25,-1.15625 1.15625,-4.21875 z m 34.625,0.5 4.34375,1.15625 -1.1875,4.1875 -4.34375,-1.15625 1.1875,-4.1875 z m -96.28125,0.0937 4.15625,1.15625 -1.15625,4.34375 -4.1875,-1.15625 1.1875,-4.34375 z m 131.0625,0.40625 4.34375,1.15625 -1.15625,4.25 -4.3125,-1.1875 1.125,-4.21875 z m 34.71875,0.0937 4.34375,1.1875 -1.21875,4.625 -4.34375,-1.15625 1.21875,-4.65625 z m -131.25,0.46875 4.21875,1.0625 -1.03125,3.84375 -4.21875,-1.0625 1.03125,-3.84375 z m 35.34375,0.59375 4.15625,1.09375 -1.09375,4.3125 -4.1875,-1.1875 1.125,-4.21875 z m -96.5625,0.15625 4.25,1.125 -1.125,4.15625 -4.21875,-1.125 1.09375,-4.15625 z M 217,200.4685 l 4.21875,1.125 -1.15625,4.1875 -4.15625,-1.09375 1.09375,-4.2185 z m -96.375,0.125 4.34375,1.15625 -1.15625,4.34375 -4.28125,-1.1875 1.09375,-4.3125 z m 131.25,0.4065 4.125,1.09375 -1.125,4.25 -4.1875,-1.0625 L 251.875,201 z m 34.71875,0.0937 4.25,1.15625 -1.28125,4.5625 -4.1875,-1.0625 1.21875,-4.65625 z m -131.4375,0.40625 4.3125,1.09375 -1.03125,3.84375 -4.25,-1.125 0.96875,-3.8125 z m 35.375,0.65625 4.3125,1.09375 -1.1875,4.28125 -4.25,-1.125 1.125,-4.25 z m -96.5,0.125 4.15625,1.125 -1.125,4.125 -4.125,-1.09375 1.09375,-4.15625 z m 131.125,0.375 4.25,1.15625 -1.09375,4.125 -4.25,-1.125 1.09375,-4.15625 z m -96.28125,0.0937 3.875,1.09375 -1.09375,4.3125 -3.9375,-1.0625 1.15625,-4.34375 z m 131.09375,0.40625 4.21875,1.125 -1.09375,4.3125 -4.28125,-1.1875 1.15625,-4.25 z m 34.71875,0.125 4.34375,1.15625 -1.25,4.625 -4.34375,-1.15625 1.25,-4.625 z m -131.28125,0.375 4.625,1.25 L 167,208.75 l -4.625,-1.25 1.03125,-3.84375 z m 35.375,0.65625 3.84375,1.03125 -1.125,4.25 -3.84375,-1.03125 1.125,-4.25 z m -96.6875,0.0937 4.3125,1.15625 -1.125,4.21875 -4.34375,-1.15625 1.15625,-4.21875 z m 131.25,0.4375 4.15625,1.125 -1.125,4.125 -4.09375,-1.03125 1.0625,-4.21875 z m -96.5625,0.0312 4.25,1.1875 -1.1875,4.28125 -4.25,-1.125 1.1875,-4.34375 z m 131.46875,0.5 3.84375,1.03125 -1.09375,4.3125 -3.90625,-1.09375 1.15625,-4.25 z m 34.71875,0.125 3.65625,0.96875 -1.25,4.625 -3.6875,-1.03125 1.28125,-4.5625 z m -131,0.4375 4.25,1.15625 -1.03125,3.84375 -4.25,-1.125 1.03125,-3.875 z m 34.59375,0.46875 4.34375,1.15625 -1.125,4.25 -4.3125,-1.125 1.09375,-4.28125 z m -96.25,0.25 4.1875,1.0625 -1.125,4.25 -4.1875,-1.1875 1.125,-4.125 z m 131.125,0.375 4.3125,1.09375 -1.15625,4.25 -4.34375,-1.1875 1.1875,-4.15625 z M 145,207.125 l 4.1875,1.0625 -1.15625,4.34375 -4.21875,-1.0625 L 145,207.125 z m 131.03125,0.34375 4.34375,1.15625 -1.15625,4.25 -4.3125,-1.15625 1.125,-4.25 z m -95.875,0.6875 4.25,1.125 -1.03125,3.84375 -4.25,-1.125 1.03125,-3.84375 z m -96.53125,0.0625 4.25,1.125 -1.125,4.3125 -4.25,-1.1875 1.125,-4.25 z m 131.21875,0.40625 4.15625,1.09375 -1.125,4.25 -4.21875,-1.0625 1.1875,-4.28125 z m -96.40625,0.15625 4.34375,1.15625 -1.125,4.25 -4.28125,-1.21875 1.0625,-4.1875 z m 131.1875,0.4375 4.1875,1.0625 -1.125,4.25 -4.1875,-1.1875 1.125,-4.125 z m -96.5625,0.0625 4.34375,1.15625 -1.15625,4.34375 -4.34375,-1.15625 1.15625,-4.34375 z m 131.25,0.40625 4.25,1.125 -1.21875,4.28125 -4.15625,-1.15625 1.125,-4.25 z m -95.96875,0.65625 4.25,1.125 -1.03125,3.84375 -4.25,-1.125 1.03125,-3.84375 z m -96.4375,0.0937 4.03125,1.09375 -1.09375,4.28125 -4.0625,-1.125 1.125,-4.25 z m 131.0625,0.40625 4.25,1.125 -1.125,4.25 -4.25,-1.125 1.125,-4.25 z m -96.3125,0.1875 3.9375,1.0625 -1.09375,4.125 -3.9375,-1.03125 1.09375,-4.15625 z m 131.15625,0.375 4.21875,1.125 -1.09375,4.15625 -4.3125,-1.09375 1.1875,-4.1875 z m -96.5,0.0312 4.5625,1.28125 -1.15625,4.34375 -4.5625,-1.28125 1.15625,-4.34375 z m 131.09375,0.40625 4.3125,1.15625 -1.125,4.25 -4.34375,-1.15625 1.15625,-4.25 z M 99.875,212.5625 l 4.34375,1.1875 -1.125,4.21875 -4.34375,-1.15625 1.125,-4.25 z m 96.6875,0.0312 3.84375,1.03125 -1.0625,3.78125 -3.75,-1 0.96875,-3.8125 z m 34.65625,0.4063 4.09375,1.15625 -1.15625,4.21875 -4.0625,-1.125 1.125,-4.25 z m -96.65625,0.15625 4.21875,1.125 -1.09375,4.15625 -4.25,-1.15625 1.125,-4.125 z m 131.4375,0.4375 3.9375,1.0625 -1.125,4.125 -3.90625,-0.96875 L 266,213.59375 z m -96.09375,0.15625 4.21875,1.125 -1.15625,4.34375 -4.25,-1.125 1.1875,-4.34375 z m 130.78125,0.3125 3.625,1 -1.125,4.21875 -3.71875,-0.9375 1.21875,-4.28125 z m -96.28125,0.59375 4.28125,1.1875 -0.96875,3.8125 -4.34375,-1.15625 1.03125,-3.84375 z m -96.28125,0.0625 4.1875,1.1875 -1.125,4.25 -4.21875,-1.09375 1.15625,-4.34375 z m 131.09375,0.4375 4.3125,1.15625 -1.125,4.21875 -4.34375,-1.15625 1.15625,-4.21875 z m -96.4375,0.15625 4.1875,1.15625 -1.09375,4.15625 -4.21875,-1.09375 1.125,-4.21875 z m 131.0625,0.34375 4.28125,1.1875 -1.09375,4.21875 -4.34375,-1.1875 1.15625,-4.21875 z M 178.125,216 l 4.125,1.09375 -1.09375,4.3125 -4.21875,-1.0625 L 178.125,216 z m 34.46875,0.84375 4.1875,1.15625 -0.96875,3.8125 -4.25,-1.125 1.03125,-3.84375 z m -96.34375,0.125 4.34375,1.15625 -1.125,4.25 -4.34375,-1.1875 1.125,-4.21875 z m 131.1875,0.4375 4.1875,1.0625 -1.125,4.25 -4.21875,-1.09375 1.15625,-4.21875 z m -96.5625,0.0625 4.34375,1.15625 -1.125,4.25 -4.34375,-1.15625 1.125,-4.25 z m 131.28125,0.46875 4.125,1.09375 -1.09375,4.15625 -4.21875,-1.09375 1.1875,-4.15625 z m -95.90625,0.1875 4.28125,1.1875 -1.1875,4.28125 -4.25,-1.125 1.15625,-4.34375 z m -96.59375,0.53125 4.125,1.09375 -1.09375,4.15625 -4.09375,-1.15625 1.0625,-4.09375 z m 131.125,0.375 4.25,1.125 L 224,224 l -4.25,-1.125 1.03125,-3.84375 z m -96.25,0.15625 3.84375,1.03125 -1.125,4.21875 -3.84375,-1.03125 1.125,-4.21875 z m 131.0625,0.40625 4.25,1.125 -1.125,4.25 -4.25,-1.15625 1.125,-4.21875 z m -96.5,0.125 4.59375,1.1875 -1.125,4.25 L 158,223.875 l 1.09375,-4.15625 z m 131.15625,0.375 4.28125,1.09375 -1.125,4.25 -4.34375,-1.15625 1.1875,-4.1875 z m -95.78125,0.28125 3.84375,1.03125 -1.15625,4.34375 -3.84375,-1.03125 1.15625,-4.34375 z m -96.78125,0.375 4.28125,1.21875 -1.03125,4.09375 -4.34375,-1.15625 1.09375,-4.15625 z m 131.28125,0.46875 4.125,1.125 -1.03125,3.84375 -4.125,-1.125 1.03125,-3.84375 z m -96.5625,0.0625 4.25,1.15625 -1.125,4.21875 -4.3125,-1.09375 1.1875,-4.28125 z m 131.4375,0.46875 3.90625,1.09375 -1.15625,4.21875 -3.9375,-1.03125 1.1875,-4.28125 z m -96.15625,0.28125 4.21875,1.125 -1.09375,4.15625 -4.25,-1.15625 1.125,-4.125 z m 130.71875,0.25 3.75,1 -1.15625,4.1875 -3.6875,-1.03125 1.09375,-4.15625 z m -96.125,0.1875 4.3125,1.15625 -1.15625,4.34375 -4.28125,-1.1875 1.125,-4.3125 z M 105.90625,223 110.0625,224.125 109,228.21875 104.8125,227.15625 105.90625,223 z m 131.15625,0.375 4.25,1.21875 -0.96875,3.8125 -4.3125,-1.1875 1.03125,-3.84375 z m -96.46875,0.125 4.15625,1.09375 -1.09375,4.3125 -4.1875,-1.1875 1.125,-4.21875 z m 131.0625,0.34375 4.3125,1.15625 -1.125,4.21875 -4.34375,-1.15625 1.15625,-4.21875 z m -95.71875,0.34375 4.15625,1.15625 L 179,229.5 l -4.21875,-1.09375 1.15625,-4.21875 z m 130.1875,0.15625 4.21875,1.15625 -1.09375,4.125 -4.3125,-1.09375 1.1875,-4.1875 z m -95.625,0.28125 4.1875,1.15625 -1.15625,4.34375 -4.1875,-1.15625 L 210.5,224.625 z m -96.40625,0.59375 4.3125,1.09375 -1.125,4.125 -4.34375,-1.15625 1.15625,-4.0625 z m 131.125,0.375 4.1875,1.15625 -0.96875,3.8125 -4.21875,-1.125 1,-3.84375 z m -96.53125,0.0625 4.34375,1.15625 -1.15625,4.25 -4.3125,-1.15625 1.125,-4.25 z m 131.25,0.40625 4.15625,1.15625 -1.125,4.25 -4.1875,-1.1875 1.15625,-4.21875 z m -95.90625,0.34375 4.25,1.125 -1.09375,4.15625 -4.25,-1.125 1.09375,-4.15625 z m -96.53125,0.25 4.15625,1.09375 -1.15625,4.34375 -4.15625,-1.125 1.15625,-4.3125 z m 131.1875,0.15625 4.25,1.125 -1.15625,4.34375 -4.25,-1.125 1.15625,-4.34375 z m -96.40625,0.59375 3.9375,1.0625 -1.15625,4.0625 -3.84375,-1.03125 1.0625,-4.09375 z m 131.125,0.375 4.25,1.125 -1.03125,3.84375 -4.25,-1.125 1.03125,-3.84375 z m -96.53125,0.0625 4.625,1.25 -1.125,4.21875 -4.59375,-1.15625 1.09375,-4.3125 z m 131.125,0.375 4.34375,1.15625 -1.125,4.25 -4.34375,-1.15625 1.125,-4.25 z m -95.71875,0.34375 3.84375,1.03125 -1.125,4.25 -3.84375,-1.03125 1.125,-4.25 z m -96.75,0.28125 L 99.875,230 l -1.21875,4.28125 -4.28125,-1.09375 1.15625,-4.34375 z m 131.375,0.21875 4.125,1.0625 -1.1875,4.34375 -4.09375,-1.0625 1.15625,-4.34375 z m -96.75,0.4375 4.25,1.15625 -1.0625,4.09375 -4.28125,-1.09375 1.09375,-4.15625 z m 131.4375,0.46875 3.9375,1.0625 -1.03125,3.84375 -3.9375,-1.0625 1.03125,-3.84375 z m -96.15625,0.1875 4.34375,1.15625 -1.1875,4.28125 -4.25,-1.15625 1.09375,-4.28125 z m 130.78125,0.3125 3.71875,0.9375 -1.125,4.25 -3.71875,-0.9375 1.125,-4.25 z m -96.15625,0.1875 4.34375,1.15625 -1.125,4.25 -4.28125,-1.21875 1.0625,-4.1875 z M 103.78125,231 l 4.15625,1.1875 -1.1875,4.25 -4.125,-1.09375 L 103.78125,231 z m 131.125,0.21875 4.34375,1.15625 -1.1875,4.34375 -4.25,-1.21875 1.09375,-4.28125 z m -96.5,0.4375 4.1875,1.1875 -1.125,4.125 -4.15625,-1.15625 1.09375,-4.15625 z m 131.03125,0.46875 4.28125,1.09375 -1.03125,3.84375 -4.34375,-1.15625 1.09375,-3.78125 z m -95.71875,0.25 4.15625,1.09375 -1.15625,4.25 -4.125,-1.125 1.125,-4.21875 z m 130.1875,0.15625 4.25,1.125 -1.125,4.25 -4.25,-1.125 1.125,-4.25 z m -95.625,0.375 4.21875,1.0625 -1.125,4.25 -4.1875,-1.1875 1.09375,-4.125 z m -96.375,0.3125 4.3125,1.1875 -1.15625,4.3125 -4.28125,-1.1875 1.125,-4.3125 z m 131.25,0.15625 4.15625,1.15625 -1.15625,4.34375 -4.1875,-1.15625 1.1875,-4.34375 z m -96.65625,0.46875 4.28125,1.1875 -1.0625,4.09375 -4.34375,-1.15625 1.125,-4.125 z m 131.28125,0.4375 4.125,1.125 -1.03125,3.84375 -4.125,-1.09375 1.03125,-3.875 z m -95.875,0.28125 4.25,1.125 -1.125,4.25 -4.3125,-1.09375 1.1875,-4.28125 z m -96.5625,0.3125 4.09375,1.15625 -1.125,4.15625 -4.125,-1.125 1.15625,-4.1875 z m 131.125,0.21875 4.25,1.125 -1.125,4.15625 -4.21875,-1.125 1.09375,-4.15625 z m -96.34375,0.28125 3.96875,1.0625 -1.1875,4.34375 -3.9375,-1.0625 1.15625,-4.34375 z m 131.21875,0.1875 4.21875,1.125 -1.15625,4.34375 -4.25,-1.125 1.1875,-4.34375 z m -96.625,0.53125 4.625,1.25 -1.15625,4.0625 -4.59375,-1.1875 1.125,-4.125 z m 131.125,0.375 4.28125,1.1875 -1.0625,3.78125 -4.25,-1.125 1.03125,-3.84375 z m -95.75,0.28125 3.84375,1.03125 -1.125,4.25 -3.84375,-1.03125 1.125,-4.25 z m -96.75,0.28125 4.34375,1.15625 -1.1875,4.1875 -4.3125,-1.09375 1.15625,-4.25 z m 131.375,0.21875 4.09375,1.15625 -1.125,4.125 -4.09375,-1.03125 1.125,-4.25 z m -96.6875,0.25 4.21875,1.125 -1.15625,4.34375 -4.21875,-1.125 1.15625,-4.34375 z m 131.53125,0.3125 3.90625,1 -1.1875,4.34375 -3.9375,-1.0625 1.21875,-4.28125 z m -96.28125,0.5625 4.25,1.15625 -1.125,4.125 -4.21875,-1.125 1.09375,-4.15625 z m 130.75,0.28125 3.6875,1.03125 -0.96875,3.8125 -3.75,-1 1.03125,-3.84375 z m -96.15625,0.1875 4.34375,1.15625 -1.125,4.25 -4.34375,-1.1875 1.125,-4.21875 z m -96.3125,0.4375 4.1875,1.0625 -1.125,4.25 -4.1875,-1.15625 1.125,-4.15625 z m 131.15625,0.125 4.3125,1.15625 -1.125,4.21875 -4.34375,-1.15625 1.15625,-4.21875 z M 136.25,239.75 l 4.1875,1.0625 -1.15625,4.34375 -4.1875,-1.0625 L 136.25,239.75 z m 131.09375,0.15625 4.34375,1.15625 -1.21875,4.28125 -4.28125,-1.09375 1.15625,-4.34375 z m -95.875,0.6875 4.25,1.125 -1.15625,4.0625 -4.125,-1.09375 1.03125,-4.09375 z m 130.25,0.125 4.25,1.125 -1.03125,3.84375 -4.25,-1.125 1.03125,-3.84375 z m -95.5625,0.34375 4.15625,1.09375 -1.15625,4.25 -4.125,-1.125 1.125,-4.21875 z" id="path4380" inkscape:connector-curvature="0"/>
    <path id="path3161" sodipodi:nodetypes="ccccccccccccccccc" style="fill:#cccccc;fill-rule:evenodd;stroke:#000000;stroke-width:2;stroke-linejoin:round" d="m 25.861,67.935 28.322,185.9 62.577,-11.94 5.43,29.13 183.78,-20.14 v -0.03 l 1.74,-10.71 43.06,-6.09 L 330.82,92.175 292.93,61.508 25.86,67.93 z m 264.08,46.315 7.01,88.96 -180.19,23.06 -14.89,-120.73 166.67,-6.68 21.4,15.39 z" inkscape:connector-curvature="0"/>
    <path id="path4137" sodipodi:nodetypes="ccccccccccccccccccccccccccccc" style="fill:#b3b3b3;fill-rule:evenodd;stroke:#000000;stroke-width:2;stroke-linejoin:round" d="m 362.83,232.34 -55.12,7.81 -1.74,10.74 -40.2,4.4 -1.08,-12.3 -23.34,2.33 -4.3,13.12 -17.23,1.89 -1.07,-12.31 -28.01,4.14 0.37,11.32 -22.97,2.51 -4.3,-14.55 -29.81,2.34 -0.35,15.99 -11.49,1.26 -5.43,-29.13 -73.214,13.98 12.351,83.12 77.723,-6.57 1.07,-15.26 48.66,3.57 c 0,0 -0.19,-28.36 4.85,-37.08 4.85,-8.41 34.68,-11.26 39.86,-2.29 6.04,10.46 6.45,35.44 6.45,35.44 l 61.39,-4.71 -2.66,16.23 53.94,-1.91 z" inkscape:connector-curvature="0"/>
    <path id="path4139" sodipodi:nodetypes="ccccccccccccccccccccc" style="fill:#b3b3b3;fill-rule:evenodd;stroke:#000000;stroke-width:2;stroke-linejoin:round" d="m 267.27,152.15 -158.99,5.46 -5.9,-52.58 11.7,-0.56 0.92,-13.504 27.86,-0.925 0.46,13.009 17.54,-0.84 -0.16,-12.07 25.43,-0.283 -1.88,11.213 14.93,-0.92 0.82,-10.526 18.42,-0.103 0.92,9.856 23.4,-1.132 0.56,-8.831 19.31,-0.642 -0.24,8.655 6.43,1.338 -1.53,53.385 z" inkscape:connector-curvature="0"/>
    <path id="path8237" sodipodi:nodetypes="ccccc" style="fill:#5f5f5f;fill-opacity:1;fill-rule:evenodd;stroke:#000000;stroke-width:2;stroke-linejoin:round" d="m 79.372,288.97 -1.016,-14.74 h 11.685 l 2.163,13.05 -12.832,1.69 z" inkscape:connector-curvature="0"/>
    <path id="path8239" sodipodi:nodetypes="ccccc" style="fill:#5f5f5f;fill-opacity:1;fill-rule:evenodd;stroke:#000000;stroke-width:2;stroke-linejoin:round" d="m 327.83,260.15 -0.43,13.83 11.04,-0.29 1.97,-14.22 -12.58,0.68 z" inkscape:connector-curvature="0"/>
    <path id="path4154" sodipodi:nodetypes="ccccccc" style="fill:#808080;fill-rule:evenodd;stroke:#000000;stroke-width:2" d="m 278.02,313.91 7.28,-61.2 -24.98,-44.62 3.48,-11.79 43.57,44.22 -14.13,87.79 -15.22,-14.4 z" inkscape:connector-curvature="0"/>
    <path id="path4160" sodipodi:nodetypes="ccccccc" style="fill:#808080;fill-rule:evenodd;stroke:#000000;stroke-width:2" d="m 116.77,241.9 10.69,-34.57 5.56,17.08 -2.16,43.72 7.71,49.07 -4.94,15.23 -16.86,-90.53 z" inkscape:connector-curvature="0"/>
    <path id="path4201" sodipodi:nodetypes="ccccc" style="fill:#b3b3b3;fill-rule:evenodd;stroke:#000000;stroke-width:2;stroke-linejoin:round" d="m 103.62,85.532 -1.02,20.838 -70.611,4.57 -9.652,-27.949 81.283,2.541 z" inkscape:connector-curvature="0"/>
    <path id="path4262" sodipodi:nodetypes="ccccc" style="fill:#845340;fill-opacity:1;fill-rule:evenodd;stroke:#000000;stroke-width:2;stroke-linejoin:round" d="m 55.481,92.875 3.24,16.325 15.829,-1.36 -1.379,-15.688 -17.69,0.723 z" inkscape:connector-curvature="0"/>
    <path id="path4290" sodipodi:nodetypes="ccccccccc" style="fill:#b3b3b3;fill-rule:evenodd;stroke:#000000;stroke-width:2;stroke-linejoin:round" d="m 267.27,152.15 20.57,10.21 2.08,-48.25 -5.38,-3.87 2.64,-8.43 -15.02,-10.778 -0.85,9.678 -2.51,-1.818 -1.53,53.258 z" inkscape:connector-curvature="0"/>
    <path id="path4292" sodipodi:nodetypes="ccccccccccccc" style="fill:#808080;fill-rule:evenodd;stroke:#000000;stroke-width:2;stroke-linejoin:round" d="m 294.21,203.18 -6.37,-40.82 2.08,-48.25 1.02,13.48 1.65,-8.89 2.54,12.42 -3.14,10.21 1.12,14.7 3.36,-6.75 -0.13,10.66 -2.19,9.79 2.51,33.03 -2.45,0.42 z" inkscape:connector-curvature="0"/>
    <path id="path4256" sodipodi:nodetypes="ccccc" style="fill:#845340;fill-opacity:1;fill-rule:evenodd;stroke:#000000;stroke-width:2;stroke-linejoin:round" d="m 270.31,223.83 6.86,13.21 2.67,-10.8 -3.94,-6.48 -5.59,4.07 z" inkscape:connector-curvature="0"/>
    <path id="path4260" sodipodi:nodetypes="ccccc" style="fill:#3f1300;fill-rule:evenodd;stroke:#000000;stroke-width:2;stroke-linejoin:round" d="m 132.51,235.77 -0.51,11.94 -3.15,-10.68 0.86,-8.7 2.8,7.44 z" inkscape:connector-curvature="0"/>
    <path style="font-size:medium;font-style:normal;font-variant:normal;font-weight:normal;font-stretch:normal;text-indent:0;text-align:start;text-decoration:none;line-height:normal;letter-spacing:normal;word-spacing:normal;text-transform:none;direction:ltr;block-progression:tb;writing-mode:lr-tb;text-anchor:start;baseline-shift:baseline;color:#000000;fill:#000000;fill-opacity:1;fill-rule:nonzero;stroke:none;stroke-width:2;marker:none;visibility:visible;display:inline;overflow:visible;enable-background:accumulate;font-family:Sans;-inkscape-font-specification:Sans" d="m 234.4375,315.8125 -51.09375,3.9375 a 1.0001,1.0001 0 1 0 0.15625,1.96875 l 51.09375,-3.90625 a 1.0030471,1.0030471 0 1 0 -0.15625,-2 z" id="path4071" inkscape:connector-curvature="0"/>
    <g id="g4079" transform="matrix(2.2657429,0,0,2.2657429,-378.28197,-58.597711)">
      <path sodipodi:nodetypes="czcczcc" style="fill:#0089d0;fill-opacity:1;fill-rule:nonzero;stroke:#004c74;stroke-width:0.88271272;stroke-linecap:round;stroke-linejoin:round;stroke-miterlimit:4;stroke-opacity:1;stroke-dasharray:none;stroke-dashoffset:0" d="m 312.43307,43.688695 c 0,0 -2.61834,3.41003 -6.3024,-0.06227 -3.68406,-3.472301 -6.79331,-0.538901 -6.79331,-0.538901 l 2.15529,-9.353147 c 0,0 3.14538,-2.909314 6.8556,-0.13228 C 312.05847,36.379129 316.25,33.125 316.25,33.125 z" id="path4077" inkscape:connector-curvature="0"/>
      <path inkscape:connector-curvature="0" id="path4075" d="m 296.80807,54.063695 4.68458,-20.32932" style="fill:#567b2b;fill-opacity:1;fill-rule:nonzero;stroke:#4d3025;stroke-width:0.88271272;stroke-linecap:round;stroke-linejoin:round;stroke-miterlimit:4;stroke-opacity:1;stroke-dasharray:none;stroke-dashoffset:0"/>
    </g>
  </g>
  <g id="layer9" inkscape:label="baseteeth" inkscape:groupmode="layer" style="display:inline">
    <path id="path4218" sodipodi:nodetypes="ccccc" style="fill:#808080;fill-rule:evenodd;stroke:#000000;stroke-width:2;stroke-linejoin:round" d="m 178.81,205.21 6.09,9.15 -1.78,10.93 -6.35,-6.61 2.04,-13.47 z" inkscape:connector-curvature="0"/>
    <path id="path4220" sodipodi:nodetypes="ccccc" style="fill:#cccccc;fill-rule:evenodd;stroke:#000000;stroke-width:2;stroke-linejoin:round" d="m 178.55,205.21 6.1,9.91 26.29,-3.43 1.9,-9.14 -34.29,2.66 z" inkscape:connector-curvature="0"/>
    <path id="path4224" sodipodi:nodetypes="ccccc" style="fill:#b3b3b3;fill-rule:evenodd;stroke:#000000;stroke-width:2;stroke-linejoin:round" d="m 183.12,225.29 1.27,-10.42 26.55,-3.18 -0.13,12.2 -27.69,1.4 z" inkscape:connector-curvature="0"/>
    <path id="path4226" sodipodi:nodetypes="ccccc" style="fill:#808080;fill-rule:evenodd;stroke:#000000;stroke-width:2;stroke-linejoin:round" d="m 214.37,213.85 -3.18,9.53 -0.25,-11.69 1.9,-9.4 1.53,11.56 z" inkscape:connector-curvature="0"/>
    <path id="path4228" style="fill:#808080;fill-rule:evenodd;stroke:#000000;stroke-width:2;stroke-linejoin:round" d="m 225.79,212.25 2.16,8.8 4.67,-10.06 -4.85,-11.68 -1.98,12.94 z" inkscape:connector-curvature="0"/>
    <path id="path4230" sodipodi:nodetypes="ccccc" style="fill:#cccccc;fill-rule:evenodd;stroke:#000000;stroke-width:2;stroke-linejoin:round" d="m 251.84,197.87 4.49,11.32 -23.71,1.8 -4.85,-11.68 24.07,-1.44 z" inkscape:connector-curvature="0"/>
    <path id="path4232" sodipodi:nodetypes="ccccc" style="fill:#b3b3b3;fill-rule:evenodd;stroke:#000000;stroke-width:2;stroke-linejoin:round" d="m 255.43,217.64 0.9,-8.45 -23.71,1.8 -4.31,10.06 27.12,-3.41 z" inkscape:connector-curvature="0"/>
    <path id="path4234" sodipodi:nodetypes="ccccc" style="fill:#cccccc;fill-rule:evenodd;stroke:#000000;stroke-width:2;stroke-linejoin:round" d="m 161.67,209.37 3.95,9.34 -27.3,1.98 -3.05,-12.04 26.4,0.72 z" inkscape:connector-curvature="0"/>
    <path id="path4238" sodipodi:nodetypes="ccccc" style="fill:#808080;fill-rule:evenodd;stroke:#000000;stroke-width:2;stroke-linejoin:round" d="m 135.27,223.03 0.18,-14.74 2.87,12.4 v 13.66 l -3.05,-11.32 z" inkscape:connector-curvature="0"/>
    <path id="path4264" sodipodi:nodetypes="ccccc" style="fill:#cccccc;fill-rule:evenodd;stroke:#000000;stroke-width:2;stroke-linejoin:round" d="m 157.46,82.335 3.4,7.574 25.39,0.163 -3.66,-7.89 -25.13,0.153 z" inkscape:connector-curvature="0"/>
    <path id="path4266" sodipodi:nodetypes="ccccc" style="fill:#808080;fill-rule:evenodd;stroke:#000000;stroke-width:2;stroke-linejoin:round" d="m 157.46,82.335 3.4,7.574 0.25,12.201 -5.1,-6.272 1.45,-13.503 z" inkscape:connector-curvature="0"/>
    <path id="path4268" sodipodi:nodetypes="ccccc" style="fill:#808080;fill-rule:evenodd;stroke:#000000;stroke-width:2;stroke-linejoin:round" d="m 195.89,84.312 4.3,5.238 -0.83,10.58 -5.1,-6.268 1.63,-9.55 z" inkscape:connector-curvature="0"/>
    <path id="path4270" sodipodi:nodetypes="ccccc" style="fill:#808080;fill-rule:evenodd;stroke:#000000;stroke-width:2;stroke-linejoin:round" d="m 111.48,83.413 3.22,7.934 -0.47,12.563 -4.38,-7.174 1.63,-13.323 z" inkscape:connector-curvature="0"/>
    <path id="path4272" sodipodi:nodetypes="ccccc" style="fill:#cccccc;fill-rule:evenodd;stroke:#000000;stroke-width:2;stroke-linejoin:round" d="m 195.89,84.312 4.3,5.238 18.03,-0.196 -2.76,-5.195 -19.57,0.153 z" inkscape:connector-curvature="0"/>
    <path id="path4274" sodipodi:nodetypes="ccccc" style="fill:#cccccc;fill-rule:evenodd;stroke:#000000;stroke-width:2;stroke-linejoin:round" d="m 111.48,83.413 3.22,7.934 28.27,-1.275 -1.87,-5.194 -29.62,-1.465 z" inkscape:connector-curvature="0"/>
    <path id="path4276" sodipodi:nodetypes="ccccc" style="fill:#cccccc;fill-rule:evenodd;stroke:#000000;stroke-width:2;stroke-linejoin:round" d="m 241.43,84.222 1.69,4.609 19.11,0.253 2.08,-5.644 -22.88,0.782 z" inkscape:connector-curvature="0"/>
    <path id="path4278" sodipodi:nodetypes="ccccc" style="fill:#808080;fill-rule:evenodd;stroke:#000000;stroke-width:2;stroke-linejoin:round" d="m 265.31,92.128 -2.7,5.328 -0.02,-8.372 2.08,-5.644 0.64,8.688 z" inkscape:connector-curvature="0"/>
    <path id="path4280" sodipodi:nodetypes="ccccc" style="fill:#808080;fill-rule:evenodd;stroke:#000000;stroke-width:2;stroke-linejoin:round" d="m 241.43,84.222 1.69,4.609 0.07,9.596 -3.13,-5.284 1.37,-8.921 z" inkscape:connector-curvature="0"/>
    <path id="path8253" sodipodi:nodetypes="ccccc" style="fill:#cccccc;fill-rule:evenodd;stroke:#000000;stroke-width:2;stroke-linejoin:round" d="m 213.36,234.1 5.39,13.92 -28.01,4.14 -3.94,-13.48 26.56,-4.58 z" inkscape:connector-curvature="0"/>
    <path id="path8255" sodipodi:nodetypes="ccccc" style="fill:#cccccc;fill-rule:evenodd;stroke:#000000;stroke-width:2;stroke-linejoin:round" d="m 167.42,239.76 -3.58,11.68 -29.81,2.34 6.83,-11.68 26.56,-2.34 z" inkscape:connector-curvature="0"/>
    <path id="path8257" sodipodi:nodetypes="ccccc" style="fill:#cccccc;fill-rule:evenodd;stroke:#000000;stroke-width:2;stroke-linejoin:round" d="m 261.1,227.98 3.59,15.01 -23.34,2.33 -4.3,-15.63 24.05,-1.71 z" inkscape:connector-curvature="0"/>
    <path id="path8259" sodipodi:nodetypes="ccccc" style="fill:#808080;fill-rule:evenodd;stroke:#000000;stroke-width:2;stroke-linejoin:round" d="m 233.44,246.31 3.95,10.69 3.96,-11.68 -4.3,-15.63 -3.61,16.62 z" inkscape:connector-curvature="0"/>
    <path id="path8261" sodipodi:nodetypes="ccccc" style="fill:#808080;fill-rule:evenodd;stroke:#000000;stroke-width:2;stroke-linejoin:round" d="m 186.06,254.94 5.39,8.17 -0.71,-10.95 -3.94,-13.48 -0.74,16.26 z" inkscape:connector-curvature="0"/>
    <path id="path8263" sodipodi:nodetypes="ccccc" style="fill:#808080;fill-rule:evenodd;stroke:#000000;stroke-width:2;stroke-linejoin:round" d="m 167.42,239.76 -3.58,11.68 4.32,14.55 3.96,-9.88 -4.7,-16.35 z" inkscape:connector-curvature="0"/>
    <path id="path4236" sodipodi:nodetypes="ccccc" style="fill:#b3b3b3;fill-rule:evenodd;stroke:#000000;stroke-width:2;stroke-linejoin:round" d="m 164.19,227.7 1.43,-8.99 -27.3,1.98 v 13.66 l 25.87,-6.65 z" inkscape:connector-curvature="0"/>
    <path id="path4305" sodipodi:nodetypes="ccccc" style="fill:#cccccc;fill-rule:evenodd;stroke:#000000;stroke-width:2;stroke-linejoin:round" d="m 31.246,113.58 3.402,16.2 11.741,-1.99 -0.07,-15.08 -15.073,0.87 z" inkscape:connector-curvature="0"/>
    <path id="path4307" sodipodi:nodetypes="ccccc" style="fill:#b3b3b3;fill-rule:evenodd;stroke:#000000;stroke-width:2;stroke-linejoin:round" d="m 36.634,140.18 -1.986,-10.4 11.741,-1.99 1.726,13.31 -11.481,-0.92 z" inkscape:connector-curvature="0"/>
    <path id="path4309" sodipodi:nodetypes="ccccc" style="fill:#808080;fill-rule:evenodd;stroke:#000000;stroke-width:2;stroke-linejoin:round" d="m 49.566,125.8 -1.986,14.76 -1.191,-12.77 -0.07,-15.08 3.247,13.09 z" inkscape:connector-curvature="0"/>
    <path id="path4311" sodipodi:nodetypes="ccccc" style="fill:#b3b3b3;fill-rule:evenodd;stroke:#000000;stroke-width:2;stroke-linejoin:round" d="m 40.537,166.95 -1.987,-10.4 12.101,0.89 1.366,10.43 -11.48,-0.92 z" inkscape:connector-curvature="0"/>
    <path id="path4313" sodipodi:nodetypes="ccccc" style="fill:#cccccc;fill-rule:evenodd;stroke:#000000;stroke-width:2;stroke-linejoin:round" d="m 98.012,174.49 -1.986,-10.39 11.744,-1.99 3.16,12.59 -12.918,-0.21 z" inkscape:connector-curvature="0"/>
    <path id="path4315" sodipodi:nodetypes="ccccc" style="fill:#b3b3b3;fill-rule:evenodd;stroke:#000000;stroke-width:2;stroke-linejoin:round" d="m 91.546,132.81 0.528,-10.4 13.176,1.96 0.29,9.36 -13.994,-0.92 z" inkscape:connector-curvature="0"/>
    <path id="path4317" sodipodi:nodetypes="ccccc" style="fill:#b3b3b3;fill-rule:evenodd;stroke:#000000;stroke-width:2;stroke-linejoin:round" d="m 96.216,153.65 -0.909,-8.6 13.533,-0.19 -1.14,9.72 -11.484,-0.93 z" inkscape:connector-curvature="0"/>
    <path id="path4319" sodipodi:nodetypes="ccccc" style="fill:#b3b3b3;fill-rule:evenodd;stroke:#000000;stroke-width:2;stroke-linejoin:round" d="m 43.41,186.71 -1.627,-9.31 9.586,-1.28 3.522,11.52 -11.481,-0.93 z" inkscape:connector-curvature="0"/>
    <path id="path4323" sodipodi:nodetypes="ccccc" style="fill:#cccccc;fill-rule:evenodd;stroke:#000000;stroke-width:2;stroke-linejoin:round" d="m 36.944,143.95 1.606,12.6 12.101,0.89 -2.945,-15.8 -10.762,2.31 z" inkscape:connector-curvature="0"/>
    <path id="path4327" sodipodi:nodetypes="ccccc" style="fill:#cccccc;fill-rule:evenodd;stroke:#000000;stroke-width:2;stroke-linejoin:round" d="m 40.537,166.2 1.246,11.2 9.586,-1.28 1.261,-10.58 -12.093,0.66 z" inkscape:connector-curvature="0"/>
    <path id="path4329" sodipodi:nodetypes="ccccc" style="fill:#808080;fill-rule:evenodd;stroke:#000000;stroke-width:2;stroke-linejoin:round" d="m 55.265,176.65 -0.55,10.09 -3.346,-10.62 1.261,-10.32 2.635,10.85 z" inkscape:connector-curvature="0"/>
    <path id="path4331" sodipodi:nodetypes="ccccc" style="fill:#b3b3b3;fill-rule:evenodd;stroke:#000000;stroke-width:2;stroke-linejoin:round" d="m 98.012,174.49 0.169,9.73 12.819,2.68 -0.07,-12.56 -12.918,0.15 z" inkscape:connector-curvature="0"/>
    <path id="path4333" sodipodi:nodetypes="ccccc" style="fill:#808080;fill-rule:evenodd;stroke:#000000;stroke-width:2;stroke-linejoin:round" d="m 98.012,174.49 -1.986,-10.39 -0.832,9.87 3.163,10.07 -0.345,-9.55 z" inkscape:connector-curvature="0"/>
    <path id="path4337" sodipodi:nodetypes="ccccc" style="fill:#cccccc;fill-rule:evenodd;stroke:#000000;stroke-width:2;stroke-linejoin:round" d="m 95.497,135.68 -0.19,9.37 13.533,-0.19 -2.58,-8.97 -10.763,-0.21 z" inkscape:connector-curvature="0"/>
    <path id="path4341" sodipodi:nodetypes="ccccc" style="fill:#cccccc;fill-rule:evenodd;stroke:#000000;stroke-width:2;stroke-linejoin:round" d="m 88.672,110.17 3.402,12.24 13.176,1.96 -1.51,-14.71 -15.068,0.51 z" inkscape:connector-curvature="0"/>
    <path id="path4343" sodipodi:nodetypes="ccccc" style="fill:#808080;fill-rule:evenodd;stroke:#000000;stroke-width:2;stroke-linejoin:round" d="m 88.672,110.17 3.402,12.24 -0.472,10.59 -3.304,-12.92 0.374,-9.91 z" inkscape:connector-curvature="0"/>
    <path id="path3768" sodipodi:nodetypes="ccccccc" style="fill:#cccccc;fill-rule:evenodd;stroke:#000000;stroke-width:2;stroke-linejoin:round" d="m 274.32,53.81 3.22,5.756 14.81,-0.474 8.67,6.308 6.57,-1.255 -11.01,-10.308 -22.26,-0.027 z" inkscape:connector-curvature="0"/>
    <path id="path3772" sodipodi:nodetypes="ccccc" style="fill:#b3b3b3;fill-rule:evenodd;stroke:#000000;stroke-width:2;stroke-linejoin:round" d="m 277.56,66.27 -0.02,-6.704 14.81,-0.474 -0.31,6.899 -14.48,0.279 z" inkscape:connector-curvature="0"/>
    <path id="path3774" sodipodi:nodetypes="ccccc" style="fill:#b3b3b3;fill-rule:evenodd;stroke:#000000;stroke-width:2;stroke-linejoin:round" d="m 292.35,59.092 8.67,6.308 -0.25,7.183 -8.6,-6.211 0.18,-7.28 z" inkscape:connector-curvature="0"/>
    <path id="path3776" sodipodi:nodetypes="ccccc" style="fill:#b3b3b3;fill-rule:evenodd;stroke:#000000;stroke-width:2;stroke-linejoin:round" d="m 307.47,63.942 -6.45,1.458 -0.25,7.183 5.11,-0.621 1.59,-8.02 z" inkscape:connector-curvature="0"/>
    <path id="path3778" sodipodi:nodetypes="ccccc" style="fill:#808080;fill-rule:evenodd;stroke:#000000;stroke-width:2;stroke-linejoin:round" d="m 277.56,66.27 -0.02,-6.704 -3.52,-5.946 0.87,8.051 2.67,4.599 z" inkscape:connector-curvature="0"/>
    <path id="path3780" sodipodi:nodetypes="ccccccc" style="fill:#cccccc;fill-rule:evenodd;stroke:#000000;stroke-width:2;stroke-linejoin:round" d="m 318.32,76.201 -5.05,2.341 12.85,10.916 0.04,10.622 5.86,-0.539 L 331.6,86 318.32,76.201 z" inkscape:connector-curvature="0"/>
    <path id="path3782" sodipodi:nodetypes="ccccc" style="fill:#b3b3b3;fill-rule:evenodd;stroke:#000000;stroke-width:2;stroke-linejoin:round" d="m 313.34,86.517 -0.19,-7.72 12.97,10.661 -2.06,5.885 -10.72,-8.826 z" inkscape:connector-curvature="0"/>
    <path id="path3784" sodipodi:nodetypes="ccccc" style="fill:#808080;fill-rule:evenodd;stroke:#000000;stroke-width:2;stroke-linejoin:round" d="m 325.33,104.3 0.88,-4.307 -0.09,-10.535 -2.06,5.885 1.27,8.957 z" inkscape:connector-curvature="0"/>
    <path id="path3786" sodipodi:nodetypes="ccccc" style="fill:#b3b3b3;fill-rule:evenodd;stroke:#000000;stroke-width:2;stroke-linejoin:round" d="m 325.15,104.66 1.06,-4.667 5.48,-0.653 0.99,6.42 -7.53,-1.1 z" inkscape:connector-curvature="0"/>
    <path id="path3788" sodipodi:nodetypes="ccccc" style="fill:#cccccc;stroke:#000000;stroke-width:2;stroke-linecap:round;stroke-linejoin:round" d="m 190.49,58.597 -1.52,6.099 20.82,-0.763 2.16,-5.844 -21.46,0.508 z" inkscape:connector-curvature="0"/>
    <path id="path3792" sodipodi:nodetypes="ccccc" style="fill:#cccccc;stroke:#000000;stroke-width:2;stroke-linecap:round;stroke-linejoin:round" d="m 250.94,59.232 14.48,-0.127 -1.27,-4.701 h -14.98 l 1.77,4.828 z" inkscape:connector-curvature="0"/>
    <path id="path3794" sodipodi:nodetypes="ccccc" style="fill:#b3b3b3;stroke:#000000;stroke-width:2;stroke-linecap:round;stroke-linejoin:round" d="m 250.94,59.232 14.48,-0.127 -0.25,5.845 -14.61,0.762 0.38,-6.48 z" inkscape:connector-curvature="0"/>
    <path id="path3796" sodipodi:nodetypes="ccccc" style="fill:#808080;stroke:#000000;stroke-width:2;stroke-linecap:round;stroke-linejoin:round" d="m 250.94,59.232 -1.77,-4.955 -0.51,7.623 1.9,3.812 0.38,-6.48 z" inkscape:connector-curvature="0"/>
    <path id="path3798" sodipodi:nodetypes="ccccc" style="fill:#b3b3b3;stroke:#000000;stroke-width:2;stroke-linecap:round;stroke-linejoin:round" d="m 189.47,69.778 -0.5,-5.082 20.82,-0.763 -0.25,5.591 -20.07,0.254 z" inkscape:connector-curvature="0"/>
    <path id="path3800" sodipodi:nodetypes="ccccc" style="fill:#808080;stroke:#000000;stroke-width:2;stroke-linecap:round;stroke-linejoin:round" d="m 212.72,63.679 -2.54,5.717 -0.39,-5.463 2.16,-5.844 0.77,5.59 z" inkscape:connector-curvature="0"/>
    <path id="path3802" sodipodi:nodetypes="ccccc" style="fill:#cccccc;stroke:#000000;stroke-width:2;stroke-linecap:round;stroke-linejoin:round" d="m 223.89,61.011 15.75,-0.508 -1.27,-4.701 -14.86,0.635 0.38,4.574 z" inkscape:connector-curvature="0"/>
    <path id="path3804" sodipodi:nodetypes="ccccc" style="fill:#b3b3b3;stroke:#000000;stroke-width:2;stroke-linecap:round;stroke-linejoin:round" d="m 223.89,61.011 15.75,-0.508 0.25,4.828 -16,1.524 v -5.844 z" inkscape:connector-curvature="0"/>
    <path id="path3806" sodipodi:nodetypes="ccccc" style="fill:#808080;stroke:#000000;stroke-width:2;stroke-linecap:round;stroke-linejoin:round" d="m 223.89,61.011 -0.38,-4.574 -0.51,6.353 0.89,4.065 v -5.844 z" inkscape:connector-curvature="0"/>
    <path id="path3808" sodipodi:nodetypes="ccccc" style="fill:#b3b3b3;fill-rule:evenodd;stroke:#000000;stroke-width:2;stroke-linejoin:round" d="m 291.93,141.39 2.59,-10.4 7.53,0.88 1.36,10.44 -11.48,-0.92 z" inkscape:connector-curvature="0"/>
    <path id="path3810" sodipodi:nodetypes="ccccc" style="fill:#cccccc;fill-rule:evenodd;stroke:#000000;stroke-width:2;stroke-linejoin:round" d="m 330.86,152.49 -1.98,-10.39 10.22,0.54 2.14,10.06 -10.38,-0.21 z" inkscape:connector-curvature="0"/>
    <path id="path3812" sodipodi:nodetypes="ccccc" style="fill:#b3b3b3;fill-rule:evenodd;stroke:#000000;stroke-width:2;stroke-linejoin:round" d="m 327.29,131.14 1.79,-8.6 8.55,0.06 -1.15,9.72 -9.19,-1.18 z" inkscape:connector-curvature="0"/>
    <path id="path3814" sodipodi:nodetypes="ccccc" style="fill:#b3b3b3;fill-rule:evenodd;stroke:#000000;stroke-width:2;stroke-linejoin:round" d="m 294.55,170.04 1.43,-9.94 5.26,-0.9 -0.11,10.5 -6.58,0.34 z" inkscape:connector-curvature="0"/>
    <path id="path3816" sodipodi:nodetypes="ccccc" style="fill:#cccccc;fill-rule:evenodd;stroke:#000000;stroke-width:2;stroke-linejoin:round" d="m 292.91,118.64 1.61,12.61 7.53,0.62 -2.95,-15.79 -6.19,2.56 z" inkscape:connector-curvature="0"/>
    <path id="path3818" sodipodi:nodetypes="ccccc" style="fill:#cccccc;fill-rule:evenodd;stroke:#000000;stroke-width:2;stroke-linejoin:round" d="m 296.62,149.18 -0.64,10.92 5.4,0.13 0.36,-10.85 -5.12,-0.2 z" inkscape:connector-curvature="0"/>
    <path id="path3822" sodipodi:nodetypes="ccccc" style="fill:#b3b3b3;fill-rule:evenodd;stroke:#000000;stroke-width:2;stroke-linejoin:round" d="m 330.86,153 -0.08,9.73 10.53,2.17 -0.07,-12.56 -10.38,0.66 z" inkscape:connector-curvature="0"/>
    <path id="path3824" sodipodi:nodetypes="ccccc" style="fill:#808080;fill-rule:evenodd;stroke:#000000;stroke-width:2;stroke-linejoin:round" d="m 330.36,152.49 -1.99,-10.39 -0.83,9.86 3.16,10.08 -0.34,-9.55 z" inkscape:connector-curvature="0"/>
    <path id="path3826" sodipodi:nodetypes="ccccc" style="fill:#cccccc;fill-rule:evenodd;stroke:#000000;stroke-width:2;stroke-linejoin:round" d="m 326.83,113.42 2.14,9.02 8.66,0.16 -2.58,-8.97 -8.22,-0.21 z" inkscape:connector-curvature="0"/>
    <path id="path3830" sodipodi:nodetypes="ccccc" style="fill:#808080;fill-rule:evenodd;stroke:#000000;stroke-width:2;stroke-linejoin:round" d="m 327.29,131.14 1.79,-8.6 -2.22,-9.28 -1.33,8.1 1.76,9.78 z" inkscape:connector-curvature="0"/>
    <path id="path2787" sodipodi:nodetypes="ccccc" style="fill:#808080;stroke:#000000;stroke-width:2;stroke-linecap:round;stroke-linejoin:round" d="m 104.63,66.22 3.31,8.64 0.25,-12.451 -3.05,-4.32 -0.51,8.131 z" inkscape:connector-curvature="0"/>
    <path id="path3758" sodipodi:nodetypes="ccccc" style="fill:#b3b3b3;stroke:#000000;stroke-width:2;stroke-linecap:round;stroke-linejoin:round" d="m 129.27,73.081 -21.33,1.779 -0.26,-10.927 21.85,-1.016 -0.26,10.164 z" inkscape:connector-curvature="0"/>
    <path id="path3760" sodipodi:nodetypes="ccccc" style="fill:#cccccc;stroke:#000000;stroke-width:2;stroke-linecap:round;stroke-linejoin:round" d="m 125.46,58.089 3.56,4.32 -21.08,1.27 -2.8,-5.59 h 20.32 z" inkscape:connector-curvature="0"/>
    <path id="path3762" sodipodi:nodetypes="ccccc" style="fill:#cccccc;stroke:#000000;stroke-width:2;stroke-linecap:round;stroke-linejoin:round" d="m 174.74,58.724 1.02,5.717 -22.48,-0.635 -1.78,-5.971 23.24,0.889 z" inkscape:connector-curvature="0"/>
    <path id="path3764" sodipodi:nodetypes="ccccc" style="fill:#808080;stroke:#000000;stroke-width:2;stroke-linecap:round;stroke-linejoin:round" d="m 150.48,64.823 3.18,5.463 -0.38,-6.48 -1.78,-5.971 -1.02,6.988 z" inkscape:connector-curvature="0"/>
    <path id="path3766" sodipodi:nodetypes="ccccc" style="fill:#b3b3b3;stroke:#000000;stroke-width:2;stroke-linecap:round;stroke-linejoin:round" d="m 176.01,70.286 h -22.35 l -0.38,-6.48 22.35,0.508 0.38,5.972 z" inkscape:connector-curvature="0"/>
    <path id="path4345" sodipodi:nodetypes="ccccc" style="fill:#cccccc;stroke:#000000;stroke-width:2;stroke-linecap:round;stroke-linejoin:round" d="m 278.12,86.803 -5.84,4.065 14.99,10.162 5.08,-6.858 -14.23,-7.369 z" inkscape:connector-curvature="0"/>
    <path id="path4347" sodipodi:nodetypes="ccccc" style="fill:#b3b3b3;stroke:#000000;stroke-width:2;stroke-linecap:round;stroke-linejoin:round" d="m 291.84,105.86 -7.11,4.57 2.54,-9.4 5.08,-6.858 -0.51,11.688 z" inkscape:connector-curvature="0"/>
  </g>
  <g id="layer5" inkscape:label="stairs" inkscape:groupmode="layer" style="display:inline">
    <path id="path5184" sodipodi:nodetypes="ccccccccccccccccc" style="fill:#b3b3b3;fill-rule:evenodd;stroke:#000000;stroke-width:2" d="m 244.46,168.8 3.2,-45.39 -20.36,1.16 -1.45,3.42 -10.62,0.07 -2.03,7.42 -8.29,0.73 -1.17,6.11 -9.89,0.29 -1.74,6.11 -9.67,1.46 -1.09,5.67 -9.09,1.89 -0.8,4.37 -7.86,1.74 -0.29,7.86 81.15,-2.91 z" inkscape:connector-curvature="0"/>
    <path id="path5186" sodipodi:nodetypes="ccccc" style="fill:#cccccc;fill-rule:evenodd;stroke:#000000;stroke-width:2" d="m 239.52,99.549 8.14,23.861 -20.36,1.16 -6.4,-24.73 18.62,-0.291 z" inkscape:connector-curvature="0"/>
    <path id="path5188" sodipodi:nodetypes="ccccc" style="fill:#808080;fill-rule:evenodd;stroke:#000000;stroke-width:2;stroke-linejoin:round" d="m 220.61,110.9 5.24,16.87 1.45,-3.2 -6.4,-24.73 -0.29,11.06 z" inkscape:connector-curvature="0"/>
    <path id="path5190" sodipodi:nodetypes="ccccc" style="fill:#cccccc;fill-rule:evenodd;stroke:#000000;stroke-width:2;stroke-linejoin:round" d="m 220.61,110.9 5.24,16.87 -10.47,0.29 -1.46,-16 6.69,-1.16 z" inkscape:connector-curvature="0"/>
    <path id="path5192" sodipodi:nodetypes="ccccc" style="fill:#808080;fill-rule:evenodd;stroke:#000000;stroke-width:2" d="m 212.18,119.63 0.87,15.71 2.33,-7.28 -1.46,-16 -1.74,7.57 z" inkscape:connector-curvature="0"/>
    <path id="path5194" sodipodi:nodetypes="ccccc" style="fill:#cccccc;fill-rule:evenodd;stroke:#000000;stroke-width:2" d="m 212.18,119.63 0.87,15.71 -8.73,0.29 -1.74,-14.84 9.6,-1.16 z" inkscape:connector-curvature="0"/>
    <path id="path5196" sodipodi:nodetypes="ccccc" style="fill:#808080;fill-rule:evenodd;stroke:#000000;stroke-width:2" d="m 200.54,128.36 3.49,13.96 0.29,-6.69 -1.74,-14.84 -2.04,7.57 z" inkscape:connector-curvature="0"/>
    <path id="path5198" sodipodi:nodetypes="ccccc" style="fill:#cccccc;fill-rule:evenodd;stroke:#000000;stroke-width:2" d="m 200.54,128.36 3.49,13.96 -10.18,0.58 -0.29,-13.67 6.98,-0.87 z" inkscape:connector-curvature="0"/>
    <path id="path5200" sodipodi:nodetypes="ccccc" style="fill:#808080;fill-rule:evenodd;stroke:#000000;stroke-width:2" d="m 190.65,137.96 1.46,10.76 1.74,-5.82 -0.29,-13.67 -2.91,8.73 z" inkscape:connector-curvature="0"/>
    <path id="path5202" sodipodi:nodetypes="ccccc" style="fill:#cccccc;fill-rule:evenodd;stroke:#000000;stroke-width:2" d="m 190.65,137.96 1.46,10.76 -9.89,1.46 0.29,-11.93 8.14,-0.29 z" inkscape:connector-curvature="0"/>
    <path id="path5204" sodipodi:nodetypes="ccccc" style="fill:#808080;fill-rule:evenodd;stroke:#000000;stroke-width:2" d="m 179.89,146.69 1.46,9.31 0.87,-5.82 0.29,-11.93 -2.62,8.44 z" inkscape:connector-curvature="0"/>
    <path id="path5206" sodipodi:nodetypes="ccccc" style="fill:#cccccc;fill-rule:evenodd;stroke:#000000;stroke-width:2" d="m 179.89,146.69 1.46,9.31 -9.31,1.74 v -12.51 l 7.85,1.46 z" inkscape:connector-curvature="0"/>
    <path id="path5208" sodipodi:nodetypes="ccccc" style="fill:#808080;fill-rule:evenodd;stroke:#000000;stroke-width:2" d="m 169.42,153.67 2.04,7.86 0.58,-3.79 v -12.51 l -2.62,8.44 z" inkscape:connector-curvature="0"/>
    <path id="path5210" sodipodi:nodetypes="ccccc" style="fill:#cccccc;fill-rule:evenodd;stroke:#000000;stroke-width:2" d="m 169.42,153.67 1.45,8.15 -7.56,2.33 -1.74,-9.32 7.85,-1.16 z" inkscape:connector-curvature="0"/>
    <path id="path5212" sodipodi:nodetypes="ccccc" style="fill:#808080;fill-rule:evenodd;stroke:#000000;stroke-width:2" d="m 161.88,164.09 1.45,7.43 -0.02,-7.37 -1.74,-9.32 0.31,9.26 z" inkscape:connector-curvature="0"/>
    <path id="path2249" sodipodi:nodetypes="ccccc" style="fill:#cccccc;fill-rule:evenodd" d="m 237.48,95.111 1.72,7.299 -16.11,1.22 -2.24,-8.024 16.63,-0.495 z" inkscape:connector-curvature="0"/>
  </g>
  <g id="layer6" inkscape:label="towers" inkscape:groupmode="layer" style="display:inline">
    <path id="path8145" style="fill:#cccccc;fill-rule:evenodd;stroke:#000000;stroke-width:2;stroke-linejoin:round" d="M 16.248,72.692 54.505,74.488 71.928,72.692 87.554,72.332 109.65,71.973 107.67,14.117 3.32,15.554 16.248,72.692 z" inkscape:connector-curvature="0"/>
    <path id="path8133" sodipodi:nodetypes="ccccccccccccc" style="fill:#b3b3b3;fill-rule:evenodd;stroke:#000000;stroke-width:2;stroke-linejoin:round" d="M 18.018,91.376 C 17.256,87.819 15.478,60.884 15.478,60.884 L 40.117,60.63 40.879,74.097 54.85,74.86 57.136,63.171 h 14.732 l 0.254,9.148 h 15.24 l -3.048,-14.738 27.436,2.032 -2.54,34.05 -91.192,-2.287 z" inkscape:connector-curvature="0"/>
    <path id="path8135" sodipodi:nodetypes="ccccccccccccc" style="fill:#808080;fill-rule:evenodd;stroke:#000000;stroke-width:2;stroke-linejoin:round" d="M 18.018,91.376 C 17.256,87.819 15.478,60.884 15.478,60.884 L 12.038,46.485 11.583,55.014 10.008,48.048 10.049,39.825 7.3343,29.296 5.8906,34.68 4.7163,27.891 4.6196,18.766 1,4.727 3.5401,48.941 18.0181,91.376 z" inkscape:connector-curvature="0"/>
    <path id="path8153" sodipodi:nodetypes="ccccc" style="fill:#cccccc;fill-rule:evenodd;stroke:#000000;stroke-width:2;stroke-linejoin:round" d="m 25.813,38.346 -15.764,1.479 0.339,10.673 13.823,-4.319 1.602,-7.833 z" inkscape:connector-curvature="0"/>
    <path id="path8139" sodipodi:nodetypes="ccccc" style="fill:#cccccc;fill-rule:evenodd;stroke:#000000;stroke-width:2;stroke-linejoin:round" d="M 15.478,60.884 40.117,60.63 31.719,46.427 12.102,46.471 c 4.948,30.179 6.644,62.819 3.376,14.413 z" inkscape:connector-curvature="0"/>
    <path id="path8141" sodipodi:nodetypes="ccccc" style="fill:#b3b3b3;fill-rule:evenodd;stroke:#000000;stroke-width:2;stroke-linejoin:round" d="m 52.694,49.705 4.442,13.466 h 14.732 l -1.183,-14.57 -17.991,1.104 z" inkscape:connector-curvature="0"/>
    <path id="path8181" sodipodi:nodetypes="ccccc" style="fill:#b3b3b3;fill-rule:evenodd;stroke:#000000;stroke-width:2;stroke-linejoin:round" d="m 93.66,48.615 -0.179,-8.086 18.319,0.18 -0.54,9.343 -17.6,-1.437 z" inkscape:connector-curvature="0"/>
    <path id="path8147" sodipodi:nodetypes="ccccc" style="fill:#cccccc;fill-rule:evenodd;stroke:#000000;stroke-width:2;stroke-linejoin:round" d="m 25.813,38.346 -15.764,1.479 -2.7147,-10.529 13.105,-1.803 5.374,10.853 z" inkscape:connector-curvature="0"/>
    <path id="path8149" sodipodi:nodetypes="ccccc" style="fill:#cccccc;fill-rule:evenodd;stroke:#000000;stroke-width:2;stroke-linejoin:round" d="M 20.702,14.595 4.62,18.766 1,4.727 19.346,4.7403 20.702,14.595 z" inkscape:connector-curvature="0"/>
    <path id="path8151" sodipodi:nodetypes="ccccc" style="fill:#cccccc;fill-rule:evenodd;stroke:#000000;stroke-width:2;stroke-linejoin:round" d="m 20.702,14.595 -16.082,4.171 1.4091,8.601 11.7,-1.964 2.973,-10.808 z" inkscape:connector-curvature="0"/>
    <path id="path8157" sodipodi:nodetypes="ccccc" style="fill:#808080;fill-rule:evenodd;stroke:#000000;stroke-width:2;stroke-linejoin:round" d="m 52.694,49.705 4.442,13.466 -2.151,11.32 -7.11,-10.258 4.819,-14.528 z" inkscape:connector-curvature="0"/>
    <path id="path8159" sodipodi:nodetypes="ccccc" style="fill:#808080;fill-rule:evenodd;stroke:#000000;stroke-width:2;stroke-linejoin:round" d="m 84.13,48.601 0.184,8.98 2.647,14.43 -5.414,-8.174 2.583,-15.236 z" inkscape:connector-curvature="0"/>
    <path id="path8161" style="fill:#cccccc;fill-rule:evenodd;stroke:#000000;stroke-width:2;stroke-linejoin:round" d="m 36.365,4.2342 5.568,11.14 11.495,0.18 1.975,-12.757 -19.038,1.4372 z" inkscape:connector-curvature="0"/>
    <path id="path8163" style="fill:#cccccc;fill-rule:evenodd;stroke:#000000;stroke-width:2;stroke-linejoin:round" d="m 66.719,1.7187 v 10.062 L 79.83,11.4207 81.986,2.4371 66.719,1.7184 z" inkscape:connector-curvature="0"/>
    <path id="path8165" style="fill:#cccccc;fill-rule:evenodd;stroke:#000000;stroke-width:2;stroke-linejoin:round" d="M 90.787,1 93.66,17.53 112.88,18.429 109.47,1.719 90.787,1 z" inkscape:connector-curvature="0"/>
    <path id="path8183" sodipodi:nodetypes="ccccc" style="fill:#808080;fill-rule:evenodd;stroke:#000000;stroke-width:2;stroke-linejoin:round" d="M 93.66,48.615 93.481,40.529 92.403,28.131 91.326,36.756 93.66,48.615 z" inkscape:connector-curvature="0"/>
    <path id="path8143" sodipodi:nodetypes="ccccc" style="fill:#b3b3b3;fill-rule:evenodd;stroke:#000000;stroke-width:2;stroke-linejoin:round" d="m 84.13,48.601 0.184,8.98 27.436,2.032 0.33,-11.768 -27.95,0.756 z" inkscape:connector-curvature="0"/>
    <path id="path8167" style="fill:#cccccc;fill-rule:evenodd;stroke:#000000;stroke-width:2;stroke-linejoin:round" d="m 92.224,27.952 1.257,12.577 18.319,0.18 0.18,-13.476 -19.756,0.719 z" inkscape:connector-curvature="0"/>
    <path id="path8169" sodipodi:nodetypes="ccccc" style="fill:#808080;fill-rule:evenodd;stroke:#000000;stroke-width:2;stroke-linejoin:round" d="m 36.365,4.2342 5.568,11.14 -0.898,7.547 -5.568,-5.75 0.898,-12.937 z" inkscape:connector-curvature="0"/>
    <path id="path8171" sodipodi:nodetypes="ccccc" style="fill:#b3b3b3;fill-rule:evenodd;stroke:#000000;stroke-width:2;stroke-linejoin:round" d="m 53.428,15.554 -11.495,-0.18 -0.898,7.547 12.393,-1.797 v -5.57 z" inkscape:connector-curvature="0"/>
    <path id="path8173" sodipodi:nodetypes="ccccc" style="fill:#b3b3b3;fill-rule:evenodd;stroke:#000000;stroke-width:2;stroke-linejoin:round" d="m 67.617,21.124 -0.898,-9.343 13.111,-0.36 -0.538,8.086 -11.675,1.617 z" inkscape:connector-curvature="0"/>
    <path id="path8175" sodipodi:nodetypes="ccccc" style="fill:#808080;fill-rule:evenodd;stroke:#000000;stroke-width:2;stroke-linejoin:round" d="M 82.165,14.476 V 2.437 l -2.335,8.984 -0.538,8.086 2.873,-5.031 z" inkscape:connector-curvature="0"/>
    <path id="path8177" sodipodi:nodetypes="ccccc" style="fill:#808080;fill-rule:evenodd;stroke:#000000;stroke-width:2;stroke-linejoin:round" d="M 90.787,1 93.66,17.53 91.864,24.718 90.068,19.507 90.787,1 z" inkscape:connector-curvature="0"/>
    <path id="path8179" sodipodi:nodetypes="ccccc" style="fill:#b3b3b3;fill-rule:evenodd;stroke:#000000;stroke-width:2;stroke-linejoin:round" d="m 92.224,25.077 1.436,-7.547 19.22,0.899 -1.8,5.929 -18.856,0.719 z" inkscape:connector-curvature="0"/>
    <path id="path8207" sodipodi:nodetypes="ccccc" style="fill:#cccccc;fill-rule:evenodd;stroke:#000000;stroke-width:2;stroke-linejoin:round" d="m 120.38,235.2 -83.057,13.72 -20.321,-51.84 107.7,-18.29 -4.32,56.41 z" inkscape:connector-curvature="0"/>
    <path id="path4203" sodipodi:nodetypes="ccccc" style="fill:#845340;fill-opacity:1;fill-rule:evenodd;stroke:#000000;stroke-width:2;stroke-linejoin:round" d="m 63.295,205.02 4.318,15.76 22.48,-3.18 -0.127,-14.74 -26.671,2.16 z" inkscape:connector-curvature="0"/>
    <path id="path8187" sodipodi:nodetypes="ccccccccccccc" style="fill:#808080;fill-rule:evenodd;stroke:#000000;stroke-width:2;stroke-linejoin:round" d="m 40.179,264.52 -6.666,-34.15 -1.746,-4.86 -0.437,5.01 -2.469,-3.12 0.651,-8.27 -2.508,-7.4 -1.746,6.83 -2.509,-7.91 0.286,-9.44 -7.303,-16.32 5.284,41.04 19.163,38.59 z" inkscape:connector-curvature="0"/>
    <path id="path8191" sodipodi:nodetypes="ccccc" style="fill:#cccccc;fill-rule:evenodd;stroke:#000000;stroke-width:2;stroke-linejoin:round" d="m 69.836,210.3 7.366,12.96 13.209,-1.53 -6.859,-14.74 -13.716,3.31 z" inkscape:connector-curvature="0"/>
    <path id="path8211" sodipodi:nodetypes="ccccc" style="fill:#b3b3b3;fill-rule:evenodd;stroke:#000000;stroke-width:2;stroke-linejoin:round" d="m 44.102,209.61 -14.59,9.52 0.286,7.84 15.526,-4.6 -1.222,-12.76 z" inkscape:connector-curvature="0"/>
    <path id="path8193" sodipodi:nodetypes="ccccc" style="fill:#cccccc;fill-rule:evenodd;stroke:#000000;stroke-width:2;stroke-linejoin:round" d="m 31.735,224.78 1.778,5.59 24.385,-3.56 -5.589,-14.23 -20.574,12.2 z" inkscape:connector-curvature="0"/>
    <path id="path8215" sodipodi:nodetypes="ccccc" style="fill:#b3b3b3;fill-rule:evenodd;stroke:#000000;stroke-width:2;stroke-linejoin:round" d="m 38.498,197.43 -15.463,3.78 0.572,10.87 13.716,-2.8 1.175,-11.85 z" inkscape:connector-curvature="0"/>
    <path id="path8195" sodipodi:nodetypes="ccccc" style="fill:#cccccc;fill-rule:evenodd;stroke:#000000;stroke-width:2;stroke-linejoin:round" d="m 102.86,205.47 5.33,13.72 16.26,3.05 -0.51,-19.57 -21.08,2.8 z" inkscape:connector-curvature="0"/>
    <path id="path8205" sodipodi:nodetypes="ccccc" style="fill:#b3b3b3;fill-rule:evenodd;stroke:#000000;stroke-width:2;stroke-linejoin:round" d="m 109.46,204.2 16.51,-2.8 -3.11,-13.59 -16.16,4.64 2.76,11.75 z" inkscape:connector-curvature="0"/>
    <path id="path8197" sodipodi:nodetypes="ccccccccc" style="fill:#808080;fill-rule:evenodd;stroke:#000000;stroke-width:2;stroke-linejoin:round" d="m 131.81,205.98 -9.14,-38.12 0.19,19.95 2.38,12.77 0.35,4.38 -1.81,-3.11 0.67,20.39 -4.07,35.07 11.43,-51.33 z" inkscape:connector-curvature="0"/>
    <path id="path8225" sodipodi:nodetypes="ccccc" style="fill:#b3b3b3;fill-rule:evenodd;stroke:#000000;stroke-width:2;stroke-linejoin:round" d="m 115.81,183.36 -15.24,7.12 0.25,-12.96 18.04,-4.83 -3.05,10.67 z" inkscape:connector-curvature="0"/>
    <path id="path8227" sodipodi:nodetypes="ccccc" style="fill:#cccccc;fill-rule:evenodd;stroke:#000000;stroke-width:2;stroke-linejoin:round" d="m 114.03,164.05 -19.047,6.35 5.837,7.12 18.04,-4.83 -4.83,-8.64 z" inkscape:connector-curvature="0"/>
    <path id="path8199" sodipodi:nodetypes="ccccc" style="fill:#cccccc;fill-rule:evenodd;stroke:#000000;stroke-width:2;stroke-linejoin:round" d="m 103.36,175.48 19.31,-7.62 0.19,19.95 -16.16,4.64 -3.34,-16.97 z" inkscape:connector-curvature="0"/>
    <path id="path8201" sodipodi:nodetypes="ccccc" style="fill:#808080;fill-rule:evenodd;stroke:#000000;stroke-width:2;stroke-linejoin:round" d="m 102.86,205.47 5.33,13.72 -5.84,18.8 -2.795,-16 3.305,-16.52 z" inkscape:connector-curvature="0"/>
    <path id="path8185" sodipodi:nodetypes="ccccccccccccc" style="fill:#b3b3b3;fill-rule:evenodd;stroke:#000000;stroke-width:2;stroke-linejoin:round" d="m 39.82,264.88 -6.307,-34.51 24.385,-3.56 0.508,14.23 15.748,0.51 3.048,-18.29 13.209,-1.53 2.032,14.74 h 10.667 l 5.08,-17.28 16.26,3.05 -4.07,35.07 -80.56,7.57 z" inkscape:connector-curvature="0"/>
    <path id="path8209" sodipodi:nodetypes="ccccc" style="fill:#cccccc;fill-rule:evenodd;stroke:#000000;stroke-width:2;stroke-linejoin:round" d="m 44.102,209.61 -14.59,9.52 -2.508,-7.4 13.494,-7.4 3.604,5.28 z" inkscape:connector-curvature="0"/>
    <path id="path8213" sodipodi:nodetypes="ccccc" style="fill:#cccccc;fill-rule:evenodd;stroke:#000000;stroke-width:2;stroke-linejoin:round" d="m 38.498,197.43 -15.463,3.78 -7.303,-16.32 19.813,-1.53 2.953,14.07 z" inkscape:connector-curvature="0"/>
    <path id="path8217" sodipodi:nodetypes="ccccc" style="fill:#808080;fill-rule:evenodd;stroke:#000000;stroke-width:2;stroke-linejoin:round" d="m 46.721,192.26 -0.762,-13.98 8.383,18.3 -3.049,6.35 -4.572,-10.67 z" inkscape:connector-curvature="0"/>
    <path id="path8219" sodipodi:nodetypes="ccccc" style="fill:#b3b3b3;fill-rule:evenodd;stroke:#000000;stroke-width:2;stroke-linejoin:round" d="m 70.852,195.56 v -5.59 l -16.51,6.61 -3.049,6.35 19.559,-7.37 z" inkscape:connector-curvature="0"/>
    <path id="path8221" sodipodi:nodetypes="ccccc" style="fill:#cccccc;fill-rule:evenodd;stroke:#000000;stroke-width:2;stroke-linejoin:round" d="m 64.756,177.01 6.604,12.96 -17.018,6.61 -8.383,-18.3 18.797,-1.27 z" inkscape:connector-curvature="0"/>
    <path id="path8223" style="fill:#808080;fill-rule:evenodd;stroke:#000000;stroke-width:2;stroke-linejoin:round" d="m 96.253,183.11 4.317,7.37 0.25,-12.96 -6.091,-6.1 1.524,11.69 z" inkscape:connector-curvature="0"/>
    <path id="path8229" style="fill:#808080;fill-rule:evenodd;stroke:#000000;stroke-width:2;stroke-linejoin:round" d="m 75.638,187.27 2.874,6.65 3.592,-7.91 -7.903,-10.78 1.437,12.04 z" inkscape:connector-curvature="0"/>
    <path id="path8231" sodipodi:nodetypes="ccccc" style="fill:#b3b3b3;fill-rule:evenodd;stroke:#000000;stroke-width:2;stroke-linejoin:round" d="m 90.725,189.97 -12.213,3.95 3.592,-7.91 8.98,-5.21 -0.359,9.17 z" inkscape:connector-curvature="0"/>
    <path id="path8233" sodipodi:nodetypes="ccccc" style="fill:#cccccc;fill-rule:evenodd;stroke:#000000;stroke-width:2;stroke-linejoin:round" d="m 87.492,172 3.233,8.44 -8.621,5.57 -7.903,-10.78 13.291,-3.23 z" inkscape:connector-curvature="0"/>
    <path id="path8241" style="fill:#008ed8;fill-opacity:1;fill-rule:evenodd;stroke:#000000;stroke-width:2;stroke-linejoin:round" d="m 261.18,184.57 6.46,31.99 24.79,20.12 30.89,7.91 41.31,-5.75 14.37,-24.8 -50.65,-69.71 -67.17,40.24 z" inkscape:connector-curvature="0"/>
    <path id="path8245" style="fill:#008ad2;fill-opacity:1;fill-rule:evenodd;stroke:#000000;stroke-width:1px" d="m 268,215.84 60.71,-71.51 -67.89,40.24 7.18,31.27 z" inkscape:connector-curvature="0"/>
    <path id="path8247" style="fill:#0089d0;fill-opacity:1;fill-rule:evenodd;stroke:#000000;stroke-width:1px" d="m 292.43,236.68 36.28,-91.99 -60.35,71.51 24.07,20.48 z" inkscape:connector-curvature="0"/>
    <path id="path8249" style="fill:#007cbc;fill-opacity:1;fill-rule:evenodd;stroke:#000000;stroke-width:1px" d="m 322.96,244.23 5.75,-100.62 -35.92,93.43 30.17,7.19 z" inkscape:connector-curvature="0"/>
    <path id="path8251" style="fill:#0080c2;fill-opacity:1;fill-rule:evenodd;stroke:#000000;stroke-width:1px" d="m 322.96,243.87 39.87,-5.03 -33.76,-95.59 -6.11,100.62 z" inkscape:connector-curvature="0"/>
    <path id="path8203" sodipodi:nodetypes="ccccc" style="fill:#808080;fill-rule:evenodd;stroke:#000000;stroke-width:2;stroke-linejoin:round" d="m 69.836,210.3 7.366,12.96 -2.794,18.55 -4.572,-11.44 V 210.3 z" inkscape:connector-curvature="0"/>
    <path id="path8155" style="fill:#845340;fill-opacity:1;fill-rule:evenodd;stroke:#000000;stroke-width:2;stroke-linejoin:round" d="M 46.34,31.154 50.658,46.4 76.186,45.765 73.011,28.994 46.34,31.154 z" inkscape:connector-curvature="0"/>
  </g>
  <metadata id="metadata181">
    <rdf:RDF>
      <cc:Work>
        <dc:format>image/svg+xml</dc:format>
        <dc:type rdf:resource="http://purl.org/dc/dcmitype/StillImage"/>
        <cc:license rdf:resource="http://creativecommons.org/licenses/publicdomain/"/>
        <dc:publisher>
          <cc:Agent rdf:about="http://openclipart.org/">
            <dc:title>Openclipart</dc:title>
          </cc:Agent>
        </dc:publisher>
        <dc:title/>
        <dc:date>2007-12-06T19:55:18</dc:date>
        <dc:description>This is a simple cartoon/stick men-style fort I made for "Imperium: Sticks" at http://rtciv.sf.net/</dc:description>
        <dc:source>https://openclipart.org/detail/9424/ugly-non-perspective-cartoony-fort-fortress-stronghold-or-castle-by-qubodup</dc:source>
        <dc:creator>
          <cc:Agent>
            <dc:title>qubodup</dc:title>
          </cc:Agent>
        </dc:creator>
        <dc:subject>
          <rdf:Bag>
            <rdf:li>building</rdf:li>
            <rdf:li>cartography</rdf:li>
            <rdf:li>cartoon</rdf:li>
            <rdf:li>castle</rdf:li>
            <rdf:li>colour</rdf:li>
            <rdf:li>construction</rdf:li>
            <rdf:li>fantasy</rdf:li>
            <rdf:li>fort</rdf:li>
            <rdf:li>fortress</rdf:li>
            <rdf:li>game</rdf:li>
            <rdf:li>geography</rdf:li>
            <rdf:li>how i did it</rdf:li>
            <rdf:li>map</rdf:li>
            <rdf:li>medieval</rdf:li>
            <rdf:li>rpg</rdf:li>
            <rdf:li>simple</rdf:li>
            <rdf:li>sketch</rdf:li>
            <rdf:li>stronghold</rdf:li>
          </rdf:Bag>
        </dc:subject>
      </cc:Work>
      <cc:License rdf:about="http://creativecommons.org/licenses/publicdomain/">
        <cc:permits rdf:resource="http://creativecommons.org/ns#Reproduction"/>
        <cc:permits rdf:resource="http://creativecommons.org/ns#Distribution"/>
        <cc:permits rdf:resource="http://creativecommons.org/ns#DerivativeWorks"/>
      </cc:License>
    </rdf:RDF>
  </metadata>
</svg>
